<svg viewBox="0 0 64 64"  xmlns="http://www.w3.org/2000/svg">
<path fill-rule="evenodd" clip-rule="evenodd" d="M14.7381 12.9187V40.4451C14.7381 41.0127 14.1819 41.5802 13.6258 41.864H4.17115C3.33692 41.864 2.78076 41.2965 2.78076 40.4451V12.9187V12.3511L7.50807 1.85133C7.78615 1.28378 8.06422 1 8.62038 1C9.17653 1 9.73269 1.28378 10.0108 1.85133L14.7381 12.3511V12.9187ZM40.8768 11.7834C41.1549 12.0672 41.4329 12.351 41.9891 12.351C42.5453 12.351 43.1014 12.351 43.3795 12.0672C43.6576 11.7834 43.9356 11.4997 43.9356 10.9321L44.2137 8.09433C44.4918 7.24299 43.6576 6.39166 42.8233 6.39166C41.711 6.39166 40.8768 6.95922 40.8768 7.81055L40.5987 10.6483C40.5987 10.9321 40.5987 11.4997 40.8768 11.7834ZM58.1176 8.37811C57.8395 8.09433 57.5614 7.81055 57.0053 7.81055C56.7272 7.81055 56.171 7.81055 56.171 8.09433C55.8929 8.37811 55.6149 8.66188 55.6149 9.22944L55.3368 12.0672C55.0587 12.9186 55.8929 13.7699 56.7272 13.7699C57.0053 13.7699 57.5614 13.7699 57.8395 13.4861C58.1176 13.2023 58.3956 12.9186 58.3956 12.351L58.6737 9.51322C58.6737 9.22944 58.3956 8.66188 58.1176 8.37811ZM46.9945 29.3777L46.4383 30.229L45.0479 41.2963C45.0479 41.5801 44.7699 41.8639 44.4918 41.8639H40.5987C40.3206 41.8639 40.0426 41.5801 40.0426 41.5801C39.8832 41.4175 39.8152 41.3481 39.7861 41.265C39.7645 41.2031 39.7645 41.1337 39.7645 41.0126L41.1549 28.8101C41.1549 28.2426 41.4329 27.675 41.711 27.3912L45.0479 23.4183C45.326 23.1346 45.326 23.1346 45.326 22.8508L44.7699 18.0266C44.7699 17.7428 44.7699 17.459 44.4918 17.459H43.9356C43.1014 17.7428 42.2672 17.7428 41.4329 17.7428C39.4864 17.459 37.8179 16.6077 36.7056 15.1888C35.5933 13.7699 35.0372 11.7834 35.3152 10.0808L35.5933 7.24299C35.8714 4.68899 37.5399 2.41877 39.7645 1.56744C41.9891 0.716104 44.7699 0.999881 46.7164 2.41877C48.6629 3.83766 49.7753 6.10788 49.4972 8.66188L49.2191 11.2159C49.2191 11.4997 49.4972 11.4997 49.4972 11.4997C49.7753 11.4997 49.7753 11.2159 49.7753 11.2159L50.0533 8.66188C50.3314 6.10788 51.9999 4.12144 54.2245 2.98633C56.4491 2.13499 59.2299 2.41877 61.1764 3.83766C63.1229 5.25655 64.2353 7.52677 63.9572 10.0808L63.6791 12.9186C63.401 15.1888 62.0106 17.1752 60.0641 18.3103C58.1176 19.4454 55.6149 19.4454 53.6683 18.5941H53.1122C53.1122 18.5941 52.8341 18.5941 52.8341 18.8779L51.1656 23.1346V23.7021L53.3903 28.8101C53.6683 29.3777 53.6683 29.6614 53.6683 30.229L52.556 41.2963C52.556 41.5801 52.278 41.8639 51.9999 41.8639H48.1068C47.8287 41.8639 47.5506 41.5801 47.5506 41.5801L47.5506 41.5801C47.3913 41.4175 47.3232 41.348 47.2942 41.265C47.2726 41.2031 47.2726 41.1337 47.2726 41.0126L48.3849 29.9452L48.1068 29.3777C48.1068 29.3777 47.8287 29.0939 47.5506 29.0939C47.433 29.0939 47.3651 29.0939 47.3049 29.1154C47.2228 29.1447 47.1549 29.2139 46.9945 29.3777ZM31.4224 27.1083C31.7005 27.1083 31.9785 26.8245 31.9785 26.5407V12.9194C31.9785 9.7978 29.1978 6.96002 25.8609 6.96002C22.802 6.96002 20.0212 9.51402 20.0212 12.9194V26.5407C20.0212 26.8245 20.2993 27.1083 20.5774 27.1083H31.4224ZM20.5774 31.0817H31.1443C31.4224 31.0817 31.7005 31.3655 31.7005 31.6493V40.7301C31.7005 41.0139 31.4224 41.2977 31.1443 41.2977H20.5774C20.2993 41.2977 20.0212 41.0139 20.0212 40.7301V31.6493C20.0212 31.3655 20.2993 31.0817 20.5774 31.0817ZM4.17391 44H59.8261C62.0522 44 64 46.1539 64 48.6154V59.3846C64 61.8462 62.0522 64 59.8261 64H4.17391C1.94783 64 0 61.8462 0 59.3846V48.6154C0 46.1539 1.94783 44 4.17391 44Z" />
</svg>
