<svg  viewBox="0 0 64 64" xmlns="http://www.w3.org/2000/svg">
<path d="M40 6.06635H53.3333C54.1333 6.06635 54.6667 6.67299 54.6667 7.58294V47.0142C54.6667 47.9242 54.1333 48.5308 53.3333 48.5308H40C38.6667 48.5308 37.6 48.8341 36.2667 49.1374C35.7333 49.1374 35.4667 49.1374 35.2 48.8341C34.9333 48.5308 34.6667 48.2275 34.6667 47.6209V12.7393C34.6667 9.40284 34.9333 6.06635 40 6.06635ZM29.3333 12.7393V47.6209C29.3333 48.2275 29.0667 48.5308 28.8 48.8341C28.5333 49.1374 28 49.1374 27.7333 49.1374C26.4 48.8341 25.3333 48.5308 24 48.5308H10.6667C9.86667 48.5308 9.33333 47.9242 9.33333 47.0142V7.58294C9.33333 6.67299 9.86667 6.06635 10.6667 6.06635H24C29.3333 6.06635 29.3333 9.70616 29.3333 12.7393ZM60.8 7.88626C60.2667 7.58294 60 6.9763 60 6.36967V6.06635C60 2.72986 57.6 0 54.6667 0H40C37.3333 0 34.9333 0.606635 32.8 2.42654C32.2667 2.72986 31.7333 2.72986 31.2 2.42654C29.0667 0.606635 26.6667 0 24 0H9.33333C6.4 0 4 2.72986 4 6.06635V6.36967C4 6.9763 3.73333 7.58294 3.2 7.88626C1.33333 8.49289 0 10.6161 0 13.0427V52.4739C0 55.5071 2.13333 57.6303 4.8 57.9336H21.3333C25.6 57.9336 29.3333 59.1469 29.3333 60.9668C29.3333 62.7867 30.4 64 32 64C33.6 64 34.6667 62.7867 34.6667 60.9668C34.6667 59.1469 38.4 57.9336 42.6667 57.9336H59.2C61.8667 57.9336 63.7333 55.5071 64 52.4739V13.0427C64 10.6161 62.6667 8.49289 60.8 7.88626Z" />
</svg>
