<svg  viewBox="0 0 64 64"  xmlns="http://www.w3.org/2000/svg">
<g clip-path="url(#clip0)">
<path d="M59.3407 24.2805L33.2238 36.7949C32.4076 37.0669 31.5915 37.0669 30.7753 36.7949L4.6584 24.2805C3.84225 23.7364 2.75405 23.7364 1.93789 24.2805C0.849688 24.8246 0.577637 25.9128 0.577637 27.001C0.577637 28.0892 1.39379 28.9054 2.20994 29.1774L28.3269 41.6918C30.5033 42.78 33.2238 42.78 35.4002 41.6918L61.5171 29.1774C62.8773 28.3613 63.1494 27.001 62.6053 25.6408C62.3332 24.2805 60.7009 23.7364 59.3407 24.2805Z" />
<path d="M59.3416 35.1626L33.2247 47.677C32.4085 47.949 31.5924 47.949 30.7762 47.677L4.6593 35.1626C3.29904 34.6185 1.93879 35.1626 1.12263 36.5229C0.578531 37.8831 1.12263 39.2434 2.21084 40.0595L28.3277 52.5739C30.5042 53.6621 33.2247 53.6621 35.4011 52.5739L61.518 40.0595C62.8782 39.2434 63.1503 37.8831 62.6062 36.5229C62.3341 35.4347 60.7018 34.6185 59.3416 35.1626Z" />
<path d="M59.3415 45.7726L33.2246 58.2869C32.4084 58.559 31.5923 58.559 30.7761 58.2869L4.65923 45.7726C3.29897 45.2285 1.66667 45.7726 1.12256 47.1328C0.578462 48.4931 1.12256 50.1254 2.48282 50.6695L28.5997 63.1838C30.7761 64.272 33.4967 64.272 35.6731 63.1838L61.79 50.6695C63.1502 50.1254 63.6943 48.4931 63.1502 47.1328C62.3341 45.7726 60.7018 45.2285 59.3415 45.7726Z" />
<path d="M2.4824 19.6557L28.5993 31.0818C30.7757 31.898 32.9521 31.898 35.1285 31.0818L61.2454 19.6557C62.6057 19.1116 63.6939 17.4793 63.6939 15.847C63.6939 14.2147 62.6057 12.8544 61.2454 12.0383L35.1285 0.612115C32.9521 -0.204038 30.7757 -0.204038 28.5993 0.612115L2.4824 12.0383C1.12214 12.8544 0.0339355 14.2147 0.0339355 15.847C0.0339355 17.4793 1.12214 19.1116 2.4824 19.6557Z" />
</g>
<defs>
<clipPath id="clip0">
<rect width="64" height="64" />
</clipPath>
</defs>
</svg>
