<svg width="8" height="7" viewBox="0 0 8 7" xmlns="http://www.w3.org/2000/svg">
<path d="M4.464 0.143999C4.464 0.648 4.416 1.134 4.32 1.602C4.236 2.058 4.146 2.532 4.05 3.024C4.482 2.784 4.908 2.55 5.328 2.322C5.748 2.094 6.204 1.896 6.696 1.728L6.804 1.692L7.308 3.204L7.164 3.258C6.684 3.438 6.204 3.558 5.724 3.618C5.244 3.666 4.752 3.708 4.248 3.744C4.644 4.08 5.016 4.41 5.364 4.734C5.712 5.046 6.036 5.412 6.336 5.832L6.426 5.958L5.112 6.876L5.04 6.768C4.752 6.336 4.5 5.91 4.284 5.49C4.08 5.058 3.87 4.614 3.654 4.158C3.438 4.614 3.222 5.058 3.006 5.49C2.802 5.91 2.556 6.336 2.268 6.768L2.196 6.876L0.882 5.958L0.972 5.832C1.272 5.412 1.596 5.046 1.944 4.734C2.292 4.41 2.664 4.08 3.06 3.744C2.556 3.708 2.064 3.666 1.584 3.618C1.104 3.558 0.624 3.438 0.144 3.258L0 3.204L0.504 1.692L0.612 1.728C1.104 1.896 1.56 2.094 1.98 2.322C2.4 2.55 2.826 2.784 3.258 3.024C3.162 2.532 3.066 2.058 2.97 1.602C2.886 1.134 2.844 0.648 2.844 0.143999V0H4.464V0.143999Z"/>
</svg>
