<svg  viewBox="0 0 64 64"  xmlns="http://www.w3.org/2000/svg">
<g clip-path="url(#clip0)">
<path fill-rule="evenodd" clip-rule="evenodd" d="M0 5.05883C0 2.97964 1.68552 1.29413 3.76471 1.29413H15.0588C17.138 1.29413 18.8235 2.97964 18.8235 5.05883V27.6471H26.7296C28.4737 19.0551 36.0699 12.5883 45.1766 12.5883C55.5725 12.5883 64.0001 21.0158 64.0001 31.4118C64.0001 41.8077 55.5725 50.2353 45.1766 50.2353C36.0699 50.2353 28.4736 43.7684 26.7296 35.1765H18.8235V57.7647C18.8235 59.8439 17.138 61.5294 15.0588 61.5294H3.7647C1.68552 61.5294 0 59.8439 0 57.7647V5.05883ZM56.4707 31.4118C56.4707 37.6494 51.4141 42.7059 45.1766 42.7059C38.939 42.7059 33.8824 37.6494 33.8824 31.4118C33.8824 25.1742 38.939 20.1177 45.1766 20.1177C51.4141 20.1177 56.4707 25.1742 56.4707 31.4118Z" />
</g>
<defs>
<clipPath id="clip0">
<rect width="64" height="64" />
</clipPath>
</defs>
</svg>
