<svg  viewBox="0 0 64 64"  xmlns="http://www.w3.org/2000/svg">
<path fill-rule="evenodd" clip-rule="evenodd" d="M4.80001 5C2.14904 5 0 7.14904 0 9.80001V15.3434H64V9.80001C64 7.14904 61.851 5 59.2 5H4.80001ZM12 20.1434H0V53.2C0 55.851 2.14904 58 4.80001 58H59.2C61.851 58 64 55.851 64 53.2V20.1434H16.8L16.8 58H12L12 20.1434ZM24 29.0999C24 27.7744 25.0745 26.6999 26.4 26.6999H45.6001C46.9255 26.6999 48.0001 27.7744 48.0001 29.0999C48.0001 30.4254 46.9255 31.4999 45.6001 31.4999L26.4 31.4999C25.0745 31.4999 24 30.4254 24 29.0999ZM26.4 35.5334C25.0745 35.5334 24 36.6079 24 37.9334C24 39.2589 25.0745 40.3334 26.4 40.3334H45.6001C46.9255 40.3334 48.0001 39.2589 48.0001 37.9334C48.0001 36.6079 46.9255 35.5334 45.6001 35.5334H26.4ZM24 46.7667C24 45.4412 25.0745 44.3667 26.4 44.3667H45.6001C46.9255 44.3667 48.0001 45.4412 48.0001 46.7667C48.0001 48.0922 46.9255 49.1667 45.6001 49.1667H26.4C25.0745 49.1667 24 48.0922 24 46.7667Z" />
</svg>
