<svg  viewBox="0 0 64 64"  xmlns="http://www.w3.org/2000/svg">
<g clip-path="url(#clip0)">
<path fill-rule="evenodd" clip-rule="evenodd" d="M64 12.2798C64 9.29157 61.3818 6.84667 58.1818 6.84667H52.3636C52.0727 6.84667 51.7818 6.57502 51.7818 6.30336V2.77185C51.7818 1.14192 50.6182 0.0552979 48.8727 0.0552979C47.1273 0.0552979 45.9636 1.14192 45.9636 2.77185V14.1814C45.9636 15.8113 47.1273 16.8979 48.8727 16.8979C50.6182 16.8979 51.7818 15.8113 51.7818 14.1814V13.0947C51.7818 12.8231 52.0727 12.5514 52.3636 12.5514H56.7273C57.6 12.2798 58.1818 12.8231 58.1818 13.638V42.1618C58.1818 42.9768 57.6 43.5201 56.7273 43.5201H48C44.8 43.5201 42.1818 45.965 42.1818 48.9532V57.1028C42.1818 57.9178 41.6 58.4611 40.7273 58.4611H7.27273C6.4 58.4611 5.81818 57.9178 5.81818 57.1028V13.638C5.81818 12.8231 6.4 12.2798 7.27273 12.2798H10.1818C10.4727 12.2798 10.7636 12.0081 10.7636 11.7365V7.66164C10.7636 7.38998 10.4727 7.11833 10.1818 7.11833H5.81818C2.61818 7.11833 0 9.56322 0 12.5514V58.7328C0 61.721 2.61818 64.1659 5.81818 64.1659H45.0909C45.9636 64.1659 46.5455 63.8942 47.1273 63.3509L63.1273 47.0516C63.7091 46.5083 64 45.965 64 45.15V12.2798ZM32.5822 16.8979C34.3277 16.8979 35.4913 15.8113 35.4913 14.1814V13.0947C35.4913 12.8231 35.7822 12.5514 36.0731 12.5514H41.8913C42.1822 12.5514 42.4731 12.2798 42.4731 12.0081V7.66164C42.4731 7.38998 42.1822 7.11833 41.8913 7.11833H36.0731C35.7822 7.11833 35.4913 6.84667 35.4913 6.57502V2.77185C35.4913 1.14192 34.3277 0.0552979 32.5822 0.0552979C30.8368 0.0552979 29.6731 1.14192 29.6731 2.77185V14.1814C29.6731 15.5396 31.1277 16.8979 32.5822 16.8979ZM19.7816 14.1814C19.7816 15.8113 18.618 16.8979 16.8725 16.8979C15.1271 16.8979 13.9635 15.5396 13.9635 14.1814V2.77185C13.9635 1.14192 15.1271 0.0552979 16.8725 0.0552979C18.618 0.0552979 19.7816 1.14192 19.7816 2.77185V6.57502C19.7816 6.84667 20.0725 7.11833 20.3635 7.11833H26.1816C26.4725 7.11833 26.7635 7.38998 26.7635 7.66164V12.0081C26.7635 12.2798 26.4725 12.5514 26.1816 12.5514H20.3635C20.0725 12.5514 19.7816 12.8231 19.7816 13.0947V14.1814Z" />
</g>
<defs>
<clipPath id="clip0">
<rect width="64" height="64" />
</clipPath>
</defs>
</svg>
