<svg viewBox="0 0 64 64"  xmlns="http://www.w3.org/2000/svg">
<g clip-path="url(#clip0)">
<g clip-path="url(#clip1)">
<path d="M64 5.37815C64 2.42017 61.6 0 58.6667 0H5.33333C2.4 0 0 2.42017 0 5.37815V44.3697C0 47.3277 2.4 49.7479 5.33333 49.7479H14.6667C16.2667 49.7479 17.3333 48.6723 17.3333 47.0588C17.3333 45.4454 16.2667 44.3697 14.6667 44.3697H5.86667C5.6 44.3697 5.33333 44.1008 5.33333 43.8319V17.7479L17.6 5.37815H58.1333C58.4 5.37815 58.6667 5.64706 58.6667 5.91597V31.7311C58.6667 32 58.6667 32 58.4 32.2689L47.7333 43.0252C47.4667 43.2941 47.2 43.8319 47.2 44.3697V47.0588C47.2 48.6723 48.2667 49.7479 49.8667 49.7479H58.6667C61.6 49.7479 64 47.3277 64 44.3697V5.37815Z" />
<path d="M31.9997 31.731C35.1997 31.731 38.1331 33.6134 39.4664 36.5714C40.7997 39.5293 39.9997 43.0251 37.8664 45.1764C35.4664 47.5966 32.2664 48.1344 29.3331 46.7899C25.8664 45.7142 23.9997 43.0251 23.9997 39.7983C23.9997 35.2268 27.7331 31.731 31.9997 31.731ZM31.9997 26.3529C26.3997 26.3529 21.3331 30.1176 19.4664 35.4957C17.5997 40.8739 19.4664 47.0588 23.9997 50.2857V62.6554C23.9997 63.1932 24.2664 63.731 24.7997 63.9999C25.3331 64.2688 25.8664 63.9999 26.3997 63.731L31.9997 56.4705L37.5997 63.1932C37.8664 63.731 38.6664 63.731 39.1997 63.4621C39.7331 63.1932 39.9997 62.6554 39.9997 62.1176V49.7478C44.5331 46.252 46.3997 40.3361 44.5331 34.9579C42.6664 29.8487 37.5997 26.3529 31.9997 26.3529Z" />
<path d="M32 43.832C34.2091 43.832 36 42.0261 36 39.7984C36 37.5707 34.2091 35.7647 32 35.7647C29.7909 35.7647 28 37.5707 28 39.7984C28 42.0261 29.7909 43.832 32 43.832Z" />
<path d="M38.6661 13.9833C39.7328 13.9833 40.7995 13.1766 40.7995 11.832C40.7995 10.7564 39.9995 9.68076 38.6661 9.68076H25.3328C24.2661 9.68076 23.1995 10.4875 23.1995 11.832C23.1995 12.9076 23.9995 13.9833 25.3328 13.9833H38.6661Z" />
<path d="M45.3337 17.479H18.667C17.6004 17.479 16.5337 18.2857 16.5337 19.6302C16.5337 20.7059 17.6004 21.5126 18.667 21.5126H45.3337C46.4004 21.5126 47.467 20.7059 47.467 19.3613C47.467 18.5546 46.4004 17.479 45.3337 17.479Z" />
</g>
</g>
<defs>
<clipPath id="clip0">
<rect width="64" height="64" />
</clipPath>
<clipPath id="clip1">
<rect width="64" height="64" />
</clipPath>
</defs>
</svg>
