<svg viewBox="0 0 64 64"  xmlns="http://www.w3.org/2000/svg">
<path fill-rule="evenodd" clip-rule="evenodd" d="M57 7C57 10.866 53.4183 14 49 14C44.5817 14 41 10.866 41 7C41 3.13401 44.5817 0 49 0C53.4183 0 57 3.13401 57 7ZM45.4499 15.4666C48.0143 15.4666 48.7501 15.7332 48.7501 15.7332C50.4002 15.9999 52.0504 16.5332 53.3704 17.8666C54.3605 18.9332 54.6905 20.5 54.6905 21.8666L54.5001 23.5C53.51 29.6333 51.3903 35.4666 48.4201 41.3333L46.9999 44C46.8854 44.2667 46.4999 44.5 46.4999 44.5C46.4999 44.5 45.9999 45 45.4499 44.7999C45.4186 44.7886 45.3817 44.7749 45.3392 44.7593C44.6335 44.4989 42.391 43.6715 39.0899 43.1999C37.5152 42.975 35.5325 43.1455 35.0147 43.1901L35.0146 43.1901L35.013 43.1902C34.9428 43.1962 34.8999 43.1999 34.8891 43.1999C34.8685 43.1999 34.8268 43.2103 34.7718 43.224C34.5855 43.2703 34.2478 43.3543 34.0701 43.1999C33.8783 43.0332 33.8874 42.7736 33.8957 42.5374L33.8957 42.5372C33.8974 42.4902 33.899 42.4442 33.899 42.3999C33.899 42.1333 37.8593 19.9999 37.8593 19.9999C38.6849 15.7332 42.8854 15.4665 45.4499 15.4666ZM37.1982 58.6666C34.558 58.6666 32.2479 56.7999 32.2479 54.6666C32.2479 52.5333 34.558 50.6666 37.1982 50.6666C39.8384 50.6666 42.1486 52.5333 42.1486 54.6666C42.1486 56.7999 39.8384 58.6666 37.1982 58.6666ZM37.1982 45.3333C30.9278 45.3333 25.6474 49.5999 25.6474 54.6666C25.6474 59.7333 30.9278 64 37.1982 64C43.4687 64 48.7491 59.7333 48.7491 54.6666C48.7491 49.5999 43.4687 45.3333 37.1982 45.3333ZM30.928 18.1333H12.4467C10.4665 18.1333 9.14642 16.7999 9.14642 15.4666C9.14642 13.8666 10.4665 12.7999 12.4467 12.7999H30.928C32.9082 12.7999 34.2283 13.8666 34.2283 15.4666C34.2283 17.0666 32.9082 18.1333 30.928 18.1333ZM32.5779 24.5333C32.5779 22.9333 31.2578 21.8666 29.2777 21.8666H9.14619C7.16604 21.8666 5.84595 22.9333 5.84595 24.5333C5.84595 26.1333 7.16604 27.2 9.14619 27.2H29.2777C30.9278 27.2 32.5779 26.1333 32.5779 24.5333ZM27.6274 31.4667C29.6076 31.4667 30.9277 32.5333 30.9277 34.1333C30.9277 35.4667 29.2775 36.8 27.6274 36.8H17.3967C15.4165 36.8 14.0964 35.7333 14.0964 34.1333C14.0964 32.5333 15.4165 31.4667 17.3967 31.4667H27.6274Z" />
</svg>
