<svg viewBox="0 0 64 64"  xmlns="http://www.w3.org/2000/svg">
<path fill-rule="evenodd" clip-rule="evenodd" d="M9.14286 0C4.0934 0 0 4.0934 0 9.14286V54.8571C0 59.9066 4.0934 64 9.14286 64H54.8571C59.9066 64 64 59.9066 64 54.8571V9.14286C64 4.0934 59.9066 0 54.8571 0H9.14286ZM30.1278 16C29.1571 19.0915 26.2691 21.334 22.8573 21.334C19.4161 21.334 16.5078 19.0527 15.5622 15.9199C15.3839 15.972 15.1952 16 15 16H11C9.89543 16 9 15.1046 9 14C9 12.8954 9.89543 12 11 12H15C15.1448 12 15.2859 12.0154 15.422 12.0446C16.1835 8.64019 19.2233 6.09595 22.8573 6.09595C26.4755 6.09595 29.5046 8.618 30.2826 12L53 12C54.1046 12 55 12.8954 55 14C55 15.1046 54.1046 16 53 16L30.1278 16ZM11 30C9.89543 30 9 30.8954 9 32C9 33.1046 9.89543 34 11 34H33.7894C34.6676 37.2381 37.6274 39.6198 41.1435 39.6198C44.6595 39.6198 47.6193 37.2381 48.4975 34H53C54.1046 34 55 33.1046 55 32C55 30.8954 54.1046 30 53 30H48.4971C47.6184 26.7627 44.659 24.3817 41.1435 24.3817C37.628 24.3817 34.6685 26.7627 33.7898 30H11ZM11 48C9.89543 48 9 48.8954 9 50C9 51.1046 9.89543 52 11 52H21.5265C22.3039 55.3827 25.3334 57.9055 28.9521 57.9055C32.5707 57.9055 35.6002 55.3827 36.3776 52H53C54.1046 52 55 51.1046 55 50C55 48.8954 54.1046 48 53 48H36.2221C35.251 44.9092 32.3633 42.6674 28.9521 42.6674C25.5408 42.6674 22.6531 44.9092 21.682 48H11ZM26.4764 13.715C26.4764 15.7137 24.8561 17.334 22.8573 17.334C20.8586 17.334 19.2383 15.7137 19.2383 13.715C19.2383 11.7162 20.8586 10.0959 22.8573 10.0959C24.8561 10.0959 26.4764 11.7162 26.4764 13.715ZM41.1435 35.6198C43.1422 35.6198 44.7625 33.9995 44.7625 32.0008C44.7625 30.002 43.1422 28.3817 41.1435 28.3817C39.1447 28.3817 37.5244 30.002 37.5244 32.0008C37.5244 33.9995 39.1447 35.6198 41.1435 35.6198ZM32.5711 50.2864C32.5711 52.2851 30.9508 53.9055 28.9521 53.9055C26.9533 53.9055 25.333 52.2851 25.333 50.2864C25.333 48.2877 26.9533 46.6674 28.9521 46.6674C30.9508 46.6674 32.5711 48.2877 32.5711 50.2864Z" />
</svg>
