<svg  viewBox="0 0 64 64" xmlns="http://www.w3.org/2000/svg">
<g clip-path="url(#clip0)">
<path fill-rule="evenodd" clip-rule="evenodd" d="M59.0769 4.92308H4.92308L4.92308 59.0769H59.0769V4.92308ZM4.92308 0C2.20414 0 0 2.20414 0 4.92308V59.0769C0 61.7959 2.20414 64 4.92308 64H59.0769C61.7959 64 64 61.7959 64 59.0769V4.92308C64 2.20414 61.7959 0 59.0769 0H4.92308Z" />
<path d="M18.9194 21.9569C19.9861 21.9569 20.9133 22.1128 21.701 22.4246C22.3497 22.6679 22.9874 23.0225 23.6139 23.4884C23.8384 23.6554 23.8651 23.9773 23.6828 24.1897L22.5357 25.5253C22.3589 25.7311 22.0514 25.7563 21.8293 25.6006C20.9622 24.993 20.0579 24.6892 19.1164 24.6892C17.902 24.6892 16.9338 25.1897 16.2117 26.1907C15.5061 27.1753 15.1533 28.7261 15.1533 30.843C15.1533 32.9107 15.5061 34.4451 16.2117 35.4461C16.9338 36.4307 17.9102 36.923 19.141 36.923C19.781 36.923 20.3635 36.8082 20.8887 36.5784C21.2922 36.3893 21.7102 36.142 22.1428 35.8366C22.3656 35.6793 22.6744 35.7152 22.8448 35.9282L23.9359 37.2921C24.0935 37.489 24.081 37.7741 23.893 37.9423C23.3466 38.4312 22.698 38.8464 21.9471 39.1876C21.061 39.5815 20.0764 39.7784 18.9933 39.7784C17.4671 39.7784 16.1297 39.4338 14.981 38.7446C13.8322 38.0553 12.9379 37.0461 12.2979 35.7169C11.6579 34.3712 11.3379 32.7466 11.3379 30.843C11.3379 28.9887 11.6661 27.3969 12.3225 26.0676C12.9789 24.722 13.8815 23.7046 15.0302 23.0153C16.1789 22.3097 17.4753 21.9569 18.9194 21.9569Z" />
<path d="M32.2 21.9569C33.4308 21.9569 34.4974 22.1374 35.4 22.4984C36.1782 22.7902 36.9034 23.2174 37.5757 23.7799C37.7816 23.9521 37.7967 24.2589 37.6212 24.462L36.5291 25.7256C36.3526 25.93 36.0467 25.9555 35.8275 25.7978C35.3486 25.4533 34.8697 25.1904 34.3908 25.0092C33.7836 24.7794 33.1354 24.6646 32.4462 24.6646C31.6913 24.6646 31.0841 24.8287 30.6246 25.1569C30.1815 25.4687 29.96 25.92 29.96 26.5107C29.96 26.921 30.0503 27.2574 30.2308 27.52C30.4277 27.7825 30.7641 28.0287 31.24 28.2584C31.7159 28.4882 32.4297 28.7507 33.3815 29.0461C35.0718 29.5876 36.3354 30.2605 37.1723 31.0646C38.0092 31.8523 38.4277 32.9846 38.4277 34.4615C38.4277 35.5118 38.1651 36.4389 37.64 37.243C37.1149 38.0307 36.3518 38.6543 35.3508 39.1138C34.3497 39.5569 33.1764 39.7784 31.8308 39.7784C30.4851 39.7784 29.2872 39.5651 28.2369 39.1384C27.346 38.7765 26.5613 38.3023 25.8829 37.716C25.6798 37.5404 25.6715 37.2333 25.8514 37.0342L27.0502 35.7075C27.2314 35.507 27.5381 35.4881 27.753 35.6521C28.292 36.0633 28.8472 36.3885 29.4185 36.6276C30.1241 36.9066 30.8954 37.0461 31.7323 37.0461C32.6185 37.0461 33.3241 36.841 33.8492 36.4307C34.3908 36.0205 34.6615 35.4461 34.6615 34.7076C34.6615 34.2482 34.5631 33.8707 34.3662 33.5753C34.1856 33.2635 33.8656 32.9846 33.4062 32.7384C32.9467 32.4923 32.2821 32.2379 31.4123 31.9753C29.558 31.401 28.2287 30.7118 27.4246 29.9076C26.6369 29.1035 26.2431 28.0533 26.2431 26.7569C26.2431 25.8051 26.4974 24.9682 27.0062 24.2461C27.5149 23.5076 28.2205 22.9415 29.1231 22.5476C30.0256 22.1538 31.0513 21.9569 32.2 21.9569Z" />
<path d="M53.1212 22.3507C53.4537 22.3507 53.6936 22.6693 53.6017 22.9889L48.9908 39.0228C48.9292 39.237 48.7332 39.3846 48.5103 39.3846H44.8534C44.6322 39.3846 44.4373 39.2392 44.3742 39.0272L39.6011 22.9934C39.5057 22.6728 39.7459 22.3507 40.0803 22.3507H42.883C43.1129 22.3507 43.3132 22.5075 43.3684 22.7307L46.2511 34.3839C46.3769 34.8926 47.1012 34.8897 47.2228 34.3799L50.0013 22.7347C50.055 22.5096 50.2562 22.3507 50.4876 22.3507H53.1212Z" />
</g>
<defs>
<clipPath id="clip0">
<rect width="64" height="64" />
</clipPath>
</defs>
</svg>
