<svg  viewBox="0 0 64 64"  xmlns="http://www.w3.org/2000/svg">
<path d="M56.7826 55.9062C56.7826 57.5 55.7391 58.5625 54.1739 58.5625H28.087C26.5217 58.5625 25.4783 57.5 25.4783 55.9062V24.0312C25.4783 22.4375 26.5217 21.375 28.087 21.375H54.1739C55.7391 21.375 56.7826 22.4375 56.7826 24.0312V55.9062ZM18.9565 50.5938C17.3913 50.5938 16.3478 49.5313 16.3478 47.9375V16.0625C16.3478 14.4687 17.3913 13.4062 18.9565 13.4062H45.0435C46.087 13.4062 47.1304 14.2031 47.3913 15.2656C47.3913 15.5312 47.3913 15.7969 47.3913 15.7969C47.3913 16.0625 47.1304 16.0625 46.8696 16.0625H28.087C23.6522 16.0625 20.2609 19.5156 20.2609 24.0312V50.0625C20.2609 50.3281 20.2609 50.3281 20 50.5938C20 50.5938 19.7391 50.8594 19.4783 50.8594H18.9565V50.5938ZM9.82609 42.625C8.26087 42.625 7.21739 41.5625 7.21739 39.9688V8.09375C7.21739 6.5 8.26087 5.4375 9.82609 5.4375H35.913C36.9565 5.4375 38 6.23438 38.2609 7.29688C38.2609 7.5625 38.2609 7.82813 38.2609 7.82813C38.2609 8.09375 38 8.09375 37.7391 8.09375H18.9565C14.5217 8.09375 11.1304 11.5469 11.1304 16.0625V42.0938C11.1304 42.3594 11.1304 42.3594 10.8696 42.625C10.8696 42.625 10.6087 42.8906 10.3478 42.8906H9.82609V42.625ZM62 24.0312C62 19.5156 58.6087 16.0625 54.1739 16.0625H53.3913C53.1304 16.0625 52.8696 15.7969 52.8696 15.5313C52.6087 11.2813 49.2174 8.09375 45.0435 8.09375H44.2609C44 8.09375 43.7391 7.82812 43.7391 7.5625C43.4783 3.3125 40.087 0.125 35.913 0.125H9.82609C5.3913 0.125 2 3.57812 2 8.09375V39.9688C2 44.4844 5.3913 47.9375 9.82609 47.9375H10.6087C10.8696 47.9375 11.1304 48.2031 11.1304 48.4688C11.3913 52.7188 14.7826 55.9062 18.9565 55.9062H19.7391C20 55.9062 20.2609 56.1719 20.2609 56.4375C20.5217 60.6875 23.913 63.875 28.087 63.875H54.1739C58.6087 63.875 62 60.4219 62 55.9062V24.0312Z" />
<path d="M40.3482 25.8907C39.5656 25.0938 38.2612 25.3594 37.4786 26.1563L34.0873 30.4063C34.0873 30.6719 33.8264 30.6719 33.5656 30.6719C33.3047 30.6719 33.3047 30.6719 33.0438 30.4063L32.5221 29.8751C32.0003 29.3438 31.2177 29.0782 30.696 29.3438C29.9134 29.6094 29.3916 30.1407 29.3916 30.6719C29.1308 31.4688 29.3916 32.0001 29.9134 32.5313L32.5221 35.1876C33.0438 35.4532 33.5656 35.7188 34.0873 35.7188C34.609 35.7188 35.1308 35.4532 35.3916 34.9219L40.609 28.2813C40.8699 27.7501 41.1308 27.2188 41.1308 26.6876C41.1308 26.6876 40.8699 26.1563 40.3482 25.8907Z" />
<path d="M51.0431 30.6719H45.8257C44.7822 30.6719 43.7388 31.4688 43.7388 32.7969C43.7388 33.8594 44.5214 34.9219 45.8257 34.9219H51.0431C52.0866 34.9219 53.1301 34.1251 53.1301 32.7969C52.8692 31.4688 52.0866 30.6719 51.0431 30.6719Z" />
<path d="M40.3482 40.5002C39.5656 39.7033 38.2612 39.9689 37.4786 40.7658L34.0873 45.0158C34.0873 45.2814 33.8264 45.2814 33.5656 45.2814C33.3047 45.2814 33.3047 45.2814 33.0438 45.0158L32.5221 44.4845C32.0003 43.9533 31.2177 43.6877 30.696 43.9533C29.9134 44.2189 29.3916 44.7502 29.3916 45.2814C29.1308 46.0783 29.3916 46.6095 29.9134 47.1408L32.5221 49.797C33.0438 50.0627 33.5656 50.3283 34.0873 50.3283C34.609 50.3283 35.1308 50.0627 35.3916 49.5314L40.609 42.8908C40.8699 42.3595 41.1308 41.8283 41.1308 41.297C41.1308 41.297 40.8699 40.7658 40.3482 40.5002Z" />
<path d="M52.8691 47.1407C52.8691 46.0782 52.0865 45.0157 50.7821 45.0157H45.5647C44.5213 45.0157 43.4778 45.8126 43.4778 47.1407C43.4778 48.2032 44.2604 49.2657 45.5647 49.2657H50.7821C52.0865 49.2657 52.8691 48.4688 52.8691 47.1407Z" />
</svg>
