<svg viewBox="0 0 64 64" xmlns="http://www.w3.org/2000/svg">
<path fill-rule="evenodd" clip-rule="evenodd" d="M59.0769 4.92308H4.92308L4.92308 59.0769H59.0769V4.92308ZM4.92308 0C2.20414 0 0 2.20414 0 4.92308V59.0769C0 61.7959 2.20414 64 4.92308 64H59.0769C61.7959 64 64 61.7959 64 59.0769V4.92308C64 2.20414 61.7959 0 59.0769 0H4.92308Z" />
<path d="M17.7709 22.3508C18.0765 22.3508 18.3106 22.6225 18.2654 22.9248L18.0211 24.5586C17.9845 24.8035 17.7742 24.9847 17.5266 24.9847H12.3035C12.0274 24.9847 11.8035 25.2085 11.8035 25.4847V28.9154C11.8035 29.1916 12.0274 29.4154 12.3035 29.4154H16.6697C16.9458 29.4154 17.1697 29.6393 17.1697 29.9154V31.5247C17.1697 31.8008 16.9458 32.0247 16.6697 32.0247H12.3035C12.0274 32.0247 11.8035 32.2485 11.8035 32.5247V36.2262C11.8035 36.5024 12.0274 36.7262 12.3035 36.7262H17.9004C18.1766 36.7262 18.4004 36.9501 18.4004 37.2262V38.8847C18.4004 39.1608 18.1766 39.3847 17.9004 39.3847H8.68506C8.40892 39.3847 8.18506 39.1608 8.18506 38.8847V22.8508C8.18506 22.5747 8.40892 22.3508 8.68506 22.3508H17.7709Z" />
<path d="M26.6299 22.3508C29.2883 22.3508 31.4135 22.958 33.0052 24.1724C34.6135 25.3703 35.4176 27.5775 35.4176 30.7939C35.4176 33.9447 34.6299 36.1683 33.0545 37.4647C31.4955 38.7447 29.4935 39.3847 27.0483 39.3847H22.6745C22.3983 39.3847 22.1745 39.1608 22.1745 38.8847V22.8508C22.1745 22.5747 22.3983 22.3508 22.6745 22.3508H26.6299ZM26.2929 25.0093C26.0168 25.0093 25.7929 25.2331 25.7929 25.5093V36.2262C25.7929 36.5024 26.0168 36.7262 26.2929 36.7262H27.2699C28.6647 36.7262 29.7396 36.2995 30.4945 35.4462C31.2658 34.5765 31.6514 33.0257 31.6514 30.7939C31.6514 29.2513 31.4545 28.0534 31.0606 27.2001C30.6832 26.3467 30.1745 25.7724 29.5345 25.477C28.8945 25.1652 28.115 25.0093 27.196 25.0093H26.2929Z" />
<path d="M42.2872 22.3508C42.5633 22.3508 42.7872 22.5747 42.7872 22.8508V38.8847C42.7872 39.1608 42.5633 39.3847 42.2872 39.3847H39.6687C39.3926 39.3847 39.1687 39.1608 39.1687 38.8847V22.8508C39.1687 22.5747 39.3926 22.3508 39.6687 22.3508H42.2872Z" />
<path d="M47.8889 39.3847C47.6128 39.3847 47.3889 39.1608 47.3889 38.8847V22.8508C47.3889 22.5747 47.6128 22.3508 47.8889 22.3508H56.704C57.0096 22.3508 57.2437 22.6225 57.1985 22.9248L56.9541 24.5586C56.9175 24.8035 56.7072 24.9847 56.4596 24.9847H51.5074C51.2312 24.9847 51.0074 25.2085 51.0074 25.4847V29.3093C51.0074 29.5854 51.2312 29.8093 51.5074 29.8093H55.6274C55.9035 29.8093 56.1274 30.0331 56.1274 30.3093V31.9431C56.1274 32.2193 55.9035 32.4431 55.6274 32.4431H51.5074C51.2312 32.4431 51.0074 32.667 51.0074 32.9431V38.8847C51.0074 39.1608 50.7835 39.3847 50.5074 39.3847H47.8889Z" />
</svg>
