<svg xmlns="http://www.w3.org/2000/svg" width="55" height="55" viewBox="0 0 55 24">
<path fill-rule="evenodd" clip-rule="evenodd" d="M25.2703 2C25.2703 0.89543 26.1657 0 27.2703 0H53C54.1046 0 55 0.89543 55 2V22C55 23.1046 54.1046 24 53 24H27.2703C26.1657 24 25.2703 23.1046 25.2703 22V16.4C25.2703 15.2954 24.3748 14.4 23.2703 14.4H17.5857C16.677 14.4 15.9035 15.0242 15.5284 15.8519C14.201 18.7816 11.4076 20.8 8.17568 20.8C3.66105 20.8 0 16.8594 0 12C0 7.14062 3.66105 3.2 8.17568 3.2C11.4076 3.2 14.201 5.21837 15.5284 8.14807C15.9035 8.97579 16.677 9.6 17.5857 9.6H23.2703C24.3748 9.6 25.2703 8.70457 25.2703 7.6V2ZM8.17568 16C10.2283 16 11.8919 14.2094 11.8919 12C11.8919 9.79062 10.2283 8 8.17568 8C6.12305 8 4.45946 9.79062 4.45946 12C4.45946 14.2094 6.12305 16 8.17568 16Z"/>
</svg>