<svg viewBox="0 0 64 64" xmlns="http://www.w3.org/2000/svg">
<path fill-rule="evenodd" clip-rule="evenodd" d="M58.6667 50.9512C58.6667 52.561 57.6 53.6341 56 53.6341H8C6.4 53.6341 5.33333 52.561 5.33333 50.9512V17.9512C5.33333 17.6829 5.6 17.4146 5.86667 17.4146H57.8667C58.4 17.4146 58.6667 17.6829 58.6667 17.9512V50.9512ZM16 10.5C16 10.54 16.0008 10.5799 16.0023 10.6195C16.0008 10.6488 16 10.678 16 10.7073C16 10.9589 16.0586 11.2105 16.1484 11.4344C16.2743 11.8189 16.4758 12.1691 16.7352 12.4675C16.9829 12.846 17.3736 13.1304 17.8645 13.2776C18.2147 13.421 18.5981 13.5 19 13.5C20.6569 13.5 22 12.1569 22 10.5C22 8.84315 20.6569 7.5 19 7.5C17.3431 7.5 16 8.84315 16 10.5ZM64 12.0488C64 7.4878 60.5333 4 56 4H8C3.46667 4 0 7.4878 0 12.0488V50.9512C0 55.5122 3.46667 59 8 59H56C60.5333 59 64 55.5122 64 50.9512V12.0488ZM18.1334 42.6346C17.8668 42.098 18.1334 41.2931 18.6668 40.7565L23.4668 36.1955C23.6199 36.0414 23.6851 35.9758 23.7129 35.8971C23.7334 35.8387 23.7334 35.7731 23.7334 35.659C23.7334 35.3907 23.4668 35.1224 23.4668 35.1224L18.6668 30.2931C17.8668 29.4882 17.8668 28.1468 18.6668 27.3419C19.4668 26.537 20.8001 26.537 21.6001 27.3419L28.0001 34.0492C28.2668 34.3175 28.5334 34.8541 28.5334 35.3907C28.5334 35.9272 28.2668 36.4638 28.0001 36.7321L21.3334 43.4394C20.8001 43.976 20.2668 44.2443 19.4668 43.976C18.9334 43.976 18.4001 43.4394 18.1334 42.6346ZM44.2663 41.5609H33.5996C32.2663 41.5609 31.4663 40.756 31.4663 39.4145C31.4663 38.0731 32.533 37.2682 33.5996 37.2682H44.2663C45.5997 37.2682 46.3997 38.3414 46.3997 39.4145C46.3997 40.756 45.333 41.5609 44.2663 41.5609ZM9.5 13.5C11.1569 13.5 12.5 12.1569 12.5 10.5C12.5 8.84315 11.1569 7.5 9.5 7.5C7.84315 7.5 6.5 8.84315 6.5 10.5C6.5 12.1569 7.84315 13.5 9.5 13.5ZM28 13.5C29.6569 13.5 31 12.1569 31 10.5C31 8.84315 29.6569 7.5 28 7.5C26.3431 7.5 25 8.84315 25 10.5C25 12.1569 26.3431 13.5 28 13.5Z" />
</svg>
