<svg  viewBox="0 0 64 64"  xmlns="http://www.w3.org/2000/svg">
<path d="M32.2759 48.2759C30.069 48.2759 28.1379 46.3448 28.1379 44.1379C28.1379 43.0345 28.4138 41.931 29.2414 41.1034C30.069 40.2759 30.8965 39.7241 32 39.7241C34.2069 39.7241 36.1379 41.6552 36.1379 43.8621C36.1379 44.9655 35.8621 46.069 35.0345 46.8965C34.4828 47.7241 33.3793 48.2759 32.2759 48.2759ZM29.5172 16.5517C29.5172 14.8966 30.6207 13.7931 32.2759 13.7931C33.931 13.7931 35.0345 14.8966 35.0345 16.5517V33.1034C35.0345 34.7586 33.931 35.8621 32.2759 35.8621C30.6207 35.8621 29.5172 34.7586 29.5172 33.1034V16.5517ZM62.3448 28.1379L35.8621 1.65517C33.6552 -0.551724 30.3448 -0.551724 28.1379 1.65517L1.65517 28.1379C-0.551724 30.3448 -0.551724 33.6552 1.65517 35.8621L28.1379 62.3448C30.3448 64.5517 33.6552 64.5517 35.8621 62.3448L62.3448 35.8621C63.4483 34.7586 64 33.3793 64 32C64 30.6207 63.4483 28.9655 62.3448 28.1379Z" />
</svg>
