<svg  viewBox="0 0 64 64"  xmlns="http://www.w3.org/2000/svg">
<g clip-path="url(#clip0)">
<path d="M49.0667 55.2C48.8 55.4667 48.5333 55.4667 48.2667 55.4667C48 55.4667 47.7333 55.2 47.7333 54.9333V49.0667C47.7333 48.8 48 48.5333 48.2667 48.5333H54.1333C54.4 48.5333 54.6667 48.8 54.6667 49.0667C54.6667 49.3333 54.6667 49.6 54.4 49.8667L49.0667 55.2ZM5.33333 20.8C5.33333 20.5333 5.6 20.2667 5.86667 20.2667H15.2C15.7333 20 16 20.2667 16 20.8V24.8C16 25.0667 15.7333 25.3333 15.4667 25.3333H10.6667C9.6 25.3333 8.53333 26.1333 8.53333 27.4667C8.53333 28.8 9.6 29.3333 10.6667 29.3333H15.4667C15.7333 29.3333 16 29.6 16 29.8667V36.5333C16 37.0667 15.7333 37.3333 15.4667 37.3333H13.3333C12.2667 37.3333 11.2 38.1333 11.2 39.4667C11.2 40.8 12 41.6 13.3333 41.6H15.4667C15.7333 41.6 16 41.8667 16 42.1333V48.8C16 49.0667 15.7333 49.3333 15.4667 49.3333H10.6667C9.6 49.3333 8.53333 50.1333 8.53333 51.4667C8.53333 52.8 9.6 53.3333 10.6667 53.3333H15.4667C15.7333 53.3333 16 53.6 16 53.8667V57.8667C16 58.4 15.7333 58.6667 15.4667 58.6667H6.66667C5.86667 58.6667 5.33333 58.1333 5.33333 57.3333V20.8ZM15.4667 5.33333C15.7333 5.33333 16 5.6 16 5.86667V15.2C16 15.7333 15.7333 16 15.4667 16H5.86667C5.6 16 5.33333 15.7333 5.33333 15.4667V6.66667C5.33333 5.86667 5.86667 5.33333 6.66667 5.33333H15.4667ZM58.6667 15.4667C58.6667 15.7333 58.4 16 58.1333 16H54.1333C53.6 16 53.3333 15.7333 53.3333 15.4667V10.6667C53.3333 9.6 52.5333 8.53333 51.2 8.53333C49.8667 8.53333 49.3333 9.6 49.3333 10.6667V15.4667C49.3333 15.7333 49.0667 16 48.8 16H42.1333C41.8667 16 41.6 15.7333 41.6 15.4667V13.3333C41.6 12.2667 40.8 11.2 39.4667 11.2C38.1333 11.2 37.3333 12.2667 37.3333 13.3333V15.4667C37.3333 15.7333 37.0667 16 36.8 16H30.1333C29.6 16 29.3333 15.7333 29.3333 15.4667V10.6667C29.3333 9.6 28.5333 8.53333 27.2 8.53333C25.8667 8.53333 25.3333 9.6 25.3333 10.6667V15.4667C25.3333 15.7333 25.0667 16 24.5333 16H20.8C20.2667 16 20 15.7333 20 15.4667V5.86667C20 5.6 20.2667 5.33333 20.8 5.33333H57.6C58.1333 5.33333 58.6667 5.86667 58.6667 6.66667V15.4667ZM48 42.6667C45.0667 42.6667 42.6667 45.0667 42.6667 48V58.1333C42.6667 58.4 42.4 58.6667 42.1333 58.6667H20.8C20.5333 58.6667 20.2667 58.4 20.2667 58.1333V20.8C20.2667 20.5333 20.5333 20.2667 20.8 20.2667H58.1333C58.4 20.2667 58.6667 20.5333 58.6667 20.8V42.1333C58.6667 42.4 58.4 42.6667 58.1333 42.6667H48ZM64 5.33333C64 2.4 61.6 0 58.6667 0H5.33333C2.4 0 0 2.4 0 5.33333V58.6667C0 61.6 2.4 64 5.33333 64H44C46.4 64 48.8 62.9333 50.4 61.3333L61.3333 50.4C62.9333 48.5333 64 46.4 64 44V5.33333Z" />
</g>
<defs>
<clipPath id="clip0">
<rect width="64" height="64" />
</clipPath>
</defs>
</svg>
