<svg  viewBox="0 0 64 64" xmlns="http://www.w3.org/2000/svg">
<g clip-path="url(#clip0)">
<path fill-rule="evenodd" clip-rule="evenodd" d="M29.5999 46.6667C29.8666 46.6667 30.1333 46.9333 30.1333 47.2V47.7333L29.0666 48.8C28.5333 49.3333 27.9999 50.1333 27.7333 50.9333C27.4666 51.7333 26.9333 52 26.3999 52H5.33332C2.39999 52 0 49.6 0 46.6667V5.33344C0 2.40012 2.39999 0.00012207 5.33332 0.00012207H42.9332C45.8666 0.00012207 48.2665 2.40012 48.2665 5.33344V28.5334C48.2665 29.3334 47.9999 29.8667 47.4665 30.4L43.9999 33.8667C43.7332 34.1334 43.4666 34.1334 43.1999 34.1334C42.9332 34.1334 42.6666 33.8667 42.6666 33.6V6.66677C42.6666 5.86677 42.1332 5.33344 41.3332 5.33344H6.66665C5.86665 5.33344 5.33332 5.86677 5.33332 6.66677V45.3333C5.33332 46.1333 5.86665 46.6667 6.66665 46.6667H29.5999ZM18.1333 13.3333H34.1333C35.2 13.3333 36 14.1333 36.2666 15.4667C36.2666 16.8 35.2 17.6 34.1333 17.6H18.1333C16.8 17.6 16 16.5333 16 15.4667C16 14.1333 16.8 13.3333 18.1333 13.3333ZM33.8671 22.4C35.2004 22.4 36.0004 23.4667 36.0004 24.5333C36.0004 25.8667 35.2004 26.6667 34.1338 26.6667H12.8005C11.4672 26.6667 10.6672 25.6 10.6672 24.5333C10.6672 23.4667 11.4672 22.6667 12.5338 22.4H33.8671ZM12.8005 32.0001C11.4672 32.0001 10.6672 32.8001 10.6672 34.1334C10.6672 35.2001 11.4672 36.2667 12.8005 36.2667H27.4671C28.5338 36.2667 29.6005 35.4667 29.6005 34.1334C29.6005 33.0667 28.8005 32.0001 27.4671 32.0001H12.8005ZM32.2662 53.5999C31.9995 53.3332 31.7328 53.3332 31.7328 53.3332C31.4662 53.3332 31.1995 53.5999 31.1995 53.8666L29.3329 62.3999C29.3329 62.6665 29.3329 63.1999 29.5995 63.4665C29.8662 63.7332 30.1328 63.9999 30.6662 63.9999H30.9328L39.1995 62.3999C39.4662 62.3999 39.7328 62.1332 39.7328 61.8665C39.7328 61.5999 39.7328 61.3332 39.4662 61.3332L32.2662 53.5999ZM52.0002 31.4667C54.6668 28.8001 59.2001 28.8001 61.8668 31.4667C63.2001 32.8 64.0001 34.4 64.0001 36.2667C64.0001 38.1334 63.2001 40 61.8668 41.3334L44.5335 58.6666C44.0002 59.2 43.2002 59.2 42.6669 58.6666L34.6669 50.6667C34.1335 50.1333 34.1335 49.3333 34.6669 48.8L52.0002 31.4667Z" />
</g>
<defs>
<clipPath id="clip0">
<rect width="64" height="64" />
</clipPath>
</defs>
</svg>
