<svg viewBox="0 0 64 64"  xmlns="http://www.w3.org/2000/svg">
<path d="M51.2 53.3333C50.8718 53.6 50.5436 53.8667 49.8872 53.8667H14.1128C13.7846 53.8667 13.1282 53.6 12.8 53.3333C12.4718 53.0667 12.4718 52.5333 12.4718 52.2667C12.8 50.9333 13.4564 49.6 14.1128 48.2667C15.4256 45.8667 19.3641 44.5333 25.9282 42.4C26.2564 41.8667 26.2564 41.0667 25.9282 40.5333C23.3026 37.8667 21.9897 34.4 22.3179 30.9333C21.9897 28 23.959 25.3333 26.9128 23.7333C29.8667 22.1333 33.8051 22.1333 36.759 23.7333C39.7128 25.3333 41.6821 28 41.3538 30.9333C41.6821 34.4 40.3692 37.8667 37.7436 40.5333C37.4154 41.0667 37.4154 41.8667 37.7436 42.4C44.3077 44.5333 48.2462 45.8667 49.559 48.2667C50.2154 49.6 50.8718 50.9333 51.2 52.2667C51.5282 52.5333 51.5282 53.0667 51.2 53.3333ZM6.5641 8C6.5641 6.4 7.87692 5.33333 9.84615 5.33333H49.8872C50.2154 5.33333 50.5436 5.6 50.5436 5.86667V9.86667C50.5436 10.1333 50.2154 10.4 49.8872 10.4H9.84615C7.87692 10.6667 6.5641 9.6 6.5641 8ZM58.7487 10.6667C58.0923 10.6667 57.4359 9.86667 57.4359 9.33333V5.33333C57.4359 2.4 54.4821 0 50.8718 0H9.84615C4.26667 0 0 3.46667 0 8V56C0 60.5333 4.26667 64 9.84615 64H57.4359C61.0462 64 64 61.6 64 58.6667V16C64 13.3333 61.7026 11.2 58.7487 10.6667Z" />
</svg>
