<svg viewBox="0 0 64 64" xmlns="http://www.w3.org/2000/svg">
<g clip-path="url(#clip0)">
<path fill-rule="evenodd" clip-rule="evenodd" d="M10.6663 10.6957C10.6663 12.2348 9.5996 13.2609 7.9996 13.2609C6.3996 13.2609 5.33293 12.2348 5.33293 10.6957V8.13043C5.33293 5.3087 7.73293 3 10.6663 3H31.9996C33.5996 3 35.1996 3.76957 36.2663 5.05217L38.6663 8.13043H53.3329C56.2663 8.13043 58.6663 10.4391 58.6663 13.2609C58.6663 14.8 57.5996 15.8261 55.9996 15.8261C54.3996 15.8261 53.3329 14.8 53.3329 13.2609H37.3329C36.5329 13.2609 35.7329 13.0043 35.1996 12.2348L32.2663 8.38696C31.9996 8.13043 31.9996 8.13043 31.7329 8.13043H11.9996C11.1996 8.13043 10.6663 8.64348 10.6663 9.41304V10.6957ZM7.9996 32.5001C9.5996 32.5001 10.6663 31.474 10.6663 29.9348V22.2392C10.6663 21.4696 11.1996 20.9566 11.9996 20.9566H31.7329C31.9996 20.9566 31.9996 20.9566 32.2663 21.2131L35.1996 25.0609C35.7329 25.8305 36.5329 26.087 37.3329 26.087H51.9996C52.7996 26.087 53.3329 26.6001 53.3329 27.3696V29.9348C53.3329 31.474 54.3996 32.5001 55.9996 32.5001C57.5996 32.5001 58.6663 31.474 58.6663 29.9348V26.087C58.6663 23.2653 56.2663 20.9566 53.3329 20.9566H38.6663L36.2663 17.8783C35.1996 16.5957 33.5996 15.8262 31.9996 15.8262H10.6663C7.73293 15.8262 5.33293 18.1348 5.33293 20.9566V29.9348C5.33293 31.474 6.3996 32.5001 7.9996 32.5001ZM41.3333 44.5566C41.3333 45.5827 40.5333 46.6088 39.2 46.6088H24.5333C23.4667 46.6088 22.4 45.8392 22.4 44.5566C22.4 43.5305 23.2 42.5044 24.5333 42.5044H39.2C40.5333 42.761 41.3333 43.5305 41.3333 44.5566ZM60 36.3479H4C1.86667 36.3479 0 38.1436 0 40.1957V58.1523C0 60.2044 1.86667 62.0001 4 62.0001H60C62.1333 62.0001 64 60.2044 64 58.1523V40.1957C64 38.1436 62.1333 36.3479 60 36.3479Z" />
</g>
<defs>
<clipPath id="clip0">
<rect y="3" width="64" height="59" />
</clipPath>
</defs>
</svg>
