<svg  viewBox="0 0 64 64"  xmlns="http://www.w3.org/2000/svg">
<path fill-rule="evenodd" clip-rule="evenodd" d="M64 18.1644C64 15.1507 61.6 12.6849 58.6667 12.6849H31.4667C31.2 12.6849 30.9333 12.9589 30.9333 13.5068V17.6164C30.9333 17.8904 31.2 18.1644 31.4667 18.1644H57.6C58.4 18.1644 58.9333 18.7123 58.9333 19.5342V55.1507C58.9333 55.9726 58.4 56.5205 57.6 56.5205H6.93333C6.13333 56.5205 5.6 55.9726 5.6 55.1507V19.5342C5.6 18.7123 6.13333 18.1644 6.93333 18.1644H17.0667C17.3333 18.1644 17.6 17.8904 17.6 17.6164V13.2329C17.6 12.9589 17.5 12.411 17.0667 12.411H15.4667C15.2 12.411 14.8669 12.137 14.8669 11.863V10.7671C14.8669 9 16.2667 7.47945 18.1333 7.47945C19.7333 7.47945 21.3333 9.12329 21.3333 10.7671V33.7808C21.3333 34.8767 20.5333 35.6986 19.4667 35.6986C18.4 35.6986 17.6 34.8767 17.6 33.7808V23.3699C17.6 21.726 16.5333 20.6301 14.9333 20.6301C13.3333 20.6301 12.2667 21.726 12.2667 23.3699V34.0548C12.2667 38.1644 15.4667 41.1781 19.4667 41.1781C23.4667 41.1781 26.6667 37.8904 26.6667 34.0548V10.7671C26.6667 6.10959 22.6667 2 18.1333 2C13.6 2 9.33333 6.10959 9.33333 10.7671V11.863C9.33333 12.137 9.06667 12.411 8.8 12.411H5.33333C2.4 12.411 0 14.8767 0 17.8904V56.2466C0 59.2603 2.4 61.726 5.33333 61.726H58.6667C61.6 61.726 64 59.2603 64 56.2466V18.1644ZM35.2005 38.1641H48.5339C49.6006 38.1641 50.6672 37.3422 50.6672 35.9723C50.6672 34.8764 49.8672 33.7805 48.5339 33.7805H35.2005C34.1339 33.7805 33.0672 34.6025 33.0672 35.9723C33.3339 37.3422 34.1339 38.1641 35.2005 38.1641ZM20.8002 49.9454C19.4669 49.9454 18.6669 48.8495 18.6669 47.7537C18.6669 46.6578 19.4669 45.5619 20.8002 45.5619H48.8002C50.1336 45.5619 50.9336 46.6578 50.9336 47.7537C50.9336 49.1235 49.8669 49.9454 48.8002 49.9454H20.8002Z" />
</svg>
