<svg viewBox="0 0 64 64"  xmlns="http://www.w3.org/2000/svg">
<g clip-path="url(#clip0)">
<g clip-path="url(#clip1)">
<path fill-rule="evenodd" clip-rule="evenodd" d="M62.1333 14.2214C63.4667 15.0747 64 16.4969 64 17.9191V59.7325C64 61.4391 63.2 62.8614 61.8667 63.4302C60.5333 64.2836 58.9333 63.9991 57.6 63.1458L42.1333 50.9147C41.6 50.6302 41.0667 50.6302 40.5333 50.9147L25.0667 63.1458C23.7333 63.9991 21.8667 63.9991 20.5333 63.1458L1.86667 49.4925C0.533333 48.9236 0 47.5014 0 46.0791V4.26581C0 2.55915 0.8 1.13692 2.13333 0.568035C3.46667 -0.285299 5.06667 -0.000854145 6.4 0.852479L21.8667 13.0836C22.4 13.368 22.9333 13.368 23.4667 13.0836L38.9333 0.852479C40.2667 -0.000854145 42.1333 -0.000854145 43.4667 0.852479L62.1333 14.2214ZM25.8667 18.2036C25.6 18.488 25.3333 18.7725 25.3333 19.3414V54.6125C25.3333 54.8969 25.6 55.1814 25.6 55.1814C25.8667 55.1814 26.1333 55.1814 26.4 55.1814L38.1333 45.7947C38.4 45.5102 38.6667 45.2258 38.6667 44.6569V9.38581C38.6667 9.10137 38.4 8.81692 38.4 8.81692C38.1333 8.81692 37.8667 8.81692 37.6 8.81692L25.8667 18.2036ZM5.33333 8.53248C5.33333 8.24803 5.6 7.96359 5.6 7.96359C5.86667 7.96359 6.13333 7.96359 6.4 7.96359L19.4667 18.2036C19.7333 18.488 20 18.7725 20 19.3414V54.8969C20 55.1814 19.7333 55.4658 19.7333 55.4658C19.4667 55.4658 19.2 55.4658 18.9333 55.4658L5.86667 46.0791C5.6 45.5103 5.33333 45.2258 5.33333 44.6569V8.53248ZM58.4 56.0347C58.6667 56.0347 58.6667 55.7502 58.6667 55.4658V19.3414C58.6667 18.7725 58.4 18.488 58.1333 18.2036L45.0667 8.81692C44.8 8.53248 44.5333 8.53248 44.2667 8.53248C44 8.53248 44 8.81692 44 9.10137V44.6569C44 45.2258 44.2667 45.5102 44.5333 45.7947L57.6 56.0347C57.8667 56.3191 58.1333 56.3191 58.4 56.0347Z" />
</g>
</g>
<defs>
<clipPath id="clip0">
<rect width="64" height="64" />
</clipPath>
<clipPath id="clip1">
<rect width="64" height="64" />
</clipPath>
</defs>
</svg>
