<svg  viewBox="0 0 64 64" xmlns="http://www.w3.org/2000/svg">
<path fill-rule="evenodd" clip-rule="evenodd" d="M59.055 7.27134C60.7156 7.9676 61.4561 9.78631 60.7088 11.3335L44.1258 45.6683L27.8689 33.5508L18.0286 58L1.31909 46.3236C-0.137722 45.3056 -0.432968 43.38 0.659643 42.0227C1.75225 40.6653 3.81897 40.3903 5.27578 41.4083L14.9443 48.1645L24.8874 23.4601L41.6029 35.9194L54.6951 8.81218C55.4424 7.26494 57.3944 6.57509 59.055 7.27134Z" />
<path fill-rule="evenodd" clip-rule="evenodd" d="M4 6C5.65685 6 7 7.36447 7 9.04762V34.9524C7 36.6355 5.65685 38 4 38C2.34315 38 1 36.6355 1 34.9524V9.04762C1 7.36447 2.34315 6 4 6Z" />
<path fill-rule="evenodd" clip-rule="evenodd" d="M64 56C64 57.6569 62.5535 59 60.7692 59H25.2308C23.4465 59 22 57.6569 22 56C22 54.3431 23.4465 53 25.2308 53H60.7692C62.5535 53 64 54.3431 64 56Z" />
</svg>
