<svg viewBox="0 0 64 64"  xmlns="http://www.w3.org/2000/svg">
<path fill-rule="evenodd" clip-rule="evenodd" d="M50.9333 37.0667L51.7333 36.2667C53.8667 34.1333 53.8667 30.9333 51.7333 28.8L50.9333 28L50.8498 27.91C47.3727 24.1648 41.5255 17.8667 32.2667 17.8667C23.527 17.8667 17.9437 23.9161 14.7329 27.3949L14.6667 27.4667L13.3333 28.8C11.4667 30.9333 11.4667 34.1333 13.3333 36.2667L14.6667 37.6L14.7329 37.6717C17.9437 41.1505 23.527 47.2 32.2667 47.2C41.5255 47.2 47.3727 40.9018 50.8498 37.1566L50.9333 37.0667ZM5.33333 0H58.6667C61.6 0 64 2.4 64 5.33333V58.6667C64 61.6 61.6 64 58.6667 64H5.33333C2.4 64 0 61.6 0 58.6667V5.33333C0 2.4 2.4 0 5.33333 0ZM28.5334 32.5329C28.5334 34.6663 30.4 36.5329 32.5334 36.5329C34.9334 36.5329 36.8 34.9329 36.5334 32.5329C36.5334 30.3996 34.6667 28.5329 32.5334 28.5329C30.4 28.5329 28.5334 30.3996 28.5334 32.5329ZM21.8667 32.5329C21.8667 26.6663 26.6667 21.8663 32.5334 21.8663C38.6667 21.8663 43.2 26.6663 43.2 32.5329C43.2 38.3996 38.4 43.1996 32.5334 43.1996C26.6667 43.1996 21.8667 38.3996 21.8667 32.5329Z" />
</svg>
