<svg  viewBox="0 0 64 64"  xmlns="http://www.w3.org/2000/svg">
<path fill-rule="evenodd" clip-rule="evenodd" d="M0 1C0 0.447715 0.447715 0 1 0H28.8665C29.4188 0 29.8665 0.447715 29.8665 1V63C29.8665 63.5523 29.4188 64 28.8665 64H1C0.447715 64 0 63.5523 0 63V1ZM34.1334 19.8213C34.1334 19.269 34.5811 18.8213 35.1334 18.8213H62.9999C63.5522 18.8213 63.9999 19.269 63.9999 19.8213V62.9978C63.9999 63.5501 63.5522 63.9978 62.9999 63.9978H35.1334C34.5811 63.9978 34.1334 63.5501 34.1334 62.9978V19.8213ZM4.26707 4.76335C4.26707 4.21107 4.71478 3.76335 5.26707 3.76335H11.8003C12.3526 3.76335 12.8003 4.21107 12.8003 4.76335V10.2928C12.8003 10.845 12.3526 11.2928 11.8003 11.2928H5.26707C4.71478 11.2928 4.26707 10.845 4.26707 10.2928V4.76335ZM25.5998 4.76335C25.5998 4.21107 25.152 3.76335 24.5998 3.76335H18.0665C17.5142 3.76335 17.0665 4.21107 17.0665 4.76335V10.2928C17.0665 10.845 17.5142 11.2928 18.0665 11.2928H24.5998C25.152 11.2928 25.5998 10.845 25.5998 10.2928V4.76335ZM4.26707 16.0602C4.26707 15.5079 4.71478 15.0602 5.26707 15.0602H11.8003C12.3526 15.0602 12.8003 15.5079 12.8003 16.0602V21.5896C12.8003 22.1419 12.3526 22.5896 11.8003 22.5896H5.26707C4.71478 22.5896 4.26707 22.1419 4.26707 21.5896V16.0602ZM25.5998 16.0602C25.5998 15.5079 25.152 15.0602 24.5998 15.0602H18.0665C17.5142 15.0602 17.0665 15.5079 17.0665 16.0602V21.5896C17.0665 22.1419 17.5142 22.5896 18.0665 22.5896H24.5998C25.152 22.5896 25.5998 22.1419 25.5998 21.5896V16.0602ZM4.26707 27.3525C4.26707 26.8002 4.71478 26.3525 5.26707 26.3525H11.8003C12.3526 26.3525 12.8003 26.8002 12.8003 27.3525V32.8819C12.8003 33.4342 12.3526 33.8819 11.8003 33.8819H5.26707C4.71478 33.8819 4.26707 33.4342 4.26707 32.8819V27.3525ZM25.5998 27.3525C25.5998 26.8002 25.152 26.3525 24.5998 26.3525H18.0665C17.5142 26.3525 17.0665 26.8002 17.0665 27.3525V32.8819C17.0665 33.4342 17.5142 33.8819 18.0665 33.8819H24.5998C25.152 33.8819 25.5998 33.4342 25.5998 32.8819V27.3525ZM4.26707 38.6471C4.26707 38.0948 4.71478 37.6471 5.26707 37.6471H11.8003C12.3526 37.6471 12.8003 38.0948 12.8003 38.6471V44.1765C12.8003 44.7288 12.3526 45.1765 11.8003 45.1765H5.26707C4.71478 45.1765 4.26707 44.7288 4.26707 44.1765V38.6471ZM25.5998 38.6471C25.5998 38.0948 25.152 37.6471 24.5998 37.6471H18.0665C17.5142 37.6471 17.0665 38.0948 17.0665 38.6471V44.1765C17.0665 44.7288 17.5142 45.1765 18.0665 45.1765H24.5998C25.152 45.1765 25.5998 44.7288 25.5998 44.1765V38.6471ZM38.3994 23.5891C38.3994 23.0368 38.8471 22.5891 39.3994 22.5891H45.9327C46.485 22.5891 46.9327 23.0368 46.9327 23.5891V29.1185C46.9327 29.6708 46.485 30.1185 45.9327 30.1185H39.3994C38.8471 30.1185 38.3994 29.6708 38.3994 29.1185V23.5891ZM59.733 23.5891C59.733 23.0368 59.2853 22.5891 58.733 22.5891H52.1998C51.6475 22.5891 51.1998 23.0368 51.1998 23.5891V29.1185C51.1998 29.6708 51.6475 30.1185 52.1998 30.1185H58.733C59.2853 30.1185 59.733 29.6708 59.733 29.1185V23.5891ZM38.3994 34.8815C38.3994 34.3292 38.8471 33.8815 39.3994 33.8815H45.9327C46.485 33.8815 46.9327 34.3292 46.9327 34.8815V40.4109C46.9327 40.9632 46.485 41.4109 45.9327 41.4109H39.3994C38.8471 41.4109 38.3994 40.9632 38.3994 40.4109V34.8815ZM59.733 34.8815C59.733 34.3292 59.2853 33.8815 58.733 33.8815H52.1998C51.6475 33.8815 51.1998 34.3292 51.1998 34.8815V40.4109C51.1998 40.9632 51.6475 41.4109 52.1998 41.4109H58.733C59.2853 41.4109 59.733 40.9632 59.733 40.4109V34.8815ZM51.1998 46.1783C51.1998 45.626 51.6475 45.1783 52.1998 45.1783H58.733C59.2853 45.1783 59.733 45.626 59.733 46.1783V51.7077C59.733 52.26 59.2853 52.7077 58.733 52.7077H52.1998C51.6475 52.7077 51.1998 52.26 51.1998 51.7077V46.1783Z" />
</svg>
