<svg viewBox="0 0 64 64"  xmlns="http://www.w3.org/2000/svg">
<path d="M31.1709 0.396625C31.5124 0.15803 31.9662 0.156235 32.3096 0.392123L62.7417 21.2929C63.3356 21.7007 63.3163 22.5839 62.7052 22.9654L61.2058 23.9015C60.9132 24.0842 60.7354 24.4048 60.7354 24.7498V61.4854C60.7354 62.0377 60.2876 62.4854 59.7354 62.4854H50.7051C50.1528 62.4854 49.7051 62.0377 49.7051 61.4854V59.9135C49.7051 59.3612 50.1528 58.9135 50.7051 58.9135H56.1177C56.67 58.9135 57.1177 58.4658 57.1177 57.9135V22.3346C57.1177 22.2681 57.152 22.2063 57.2084 22.171C57.3263 22.0975 57.33 21.9272 57.2155 21.8485L32.3272 4.75525C31.9837 4.51936 31.53 4.52116 31.1884 4.75975L6.75713 21.8249C6.63644 21.9092 6.64109 22.0894 6.76597 22.1674C6.82605 22.2049 6.86256 22.2707 6.86256 22.3415V57.9135C6.86256 58.4658 7.31027 58.9135 7.86256 58.9135H13.9931C14.5454 58.9135 14.9931 59.3612 14.9931 59.9135V61.4854C14.9931 62.0377 14.5454 62.4854 13.9931 62.4854H4.2449C3.69262 62.4854 3.2449 62.0377 3.2449 61.4854V24.7498C3.2449 24.4048 3.0671 24.0842 2.77448 23.9015L1.28374 22.9708C0.675458 22.5911 0.652807 21.7134 1.24069 21.3027L31.1709 0.396625Z" />
<path d="M29.2169 23.7875C29.2169 27.4764 26.4632 30.4669 23.0662 30.4669C19.6693 30.4669 16.9155 27.4764 16.9155 23.7875C16.9155 20.0985 19.6693 17.108 23.0662 17.108C26.4632 17.108 29.2169 20.0985 29.2169 23.7875Z" />
<path d="M18.8343 30.4676C16.4157 30.4676 14.455 32.4035 14.455 34.7915V46.1821C14.455 47.7099 15.2575 49.0526 16.469 49.8217C16.7757 50.0164 17.0026 50.3278 17.0299 50.6902L17.9513 62.9396C17.9905 63.4614 18.4253 63.8646 18.9485 63.8646H27.184C27.7072 63.8646 28.1419 63.4614 28.1812 62.9396L29.1026 50.6899C29.1298 50.3276 29.3567 50.0162 29.6634 49.8215C30.8747 49.0523 31.677 47.7097 31.677 46.1821V34.7915C31.677 32.4035 29.7163 30.4676 27.2977 30.4676H18.8343Z" />
<path d="M48.1681 23.7875C48.1681 27.4764 45.4143 30.4669 42.0174 30.4669C38.6204 30.4669 35.8667 27.4764 35.8667 23.7875C35.8667 20.0985 38.6204 17.108 42.0174 17.108C45.4143 17.108 48.1681 20.0985 48.1681 23.7875Z" />
<path d="M39.9758 30.4676C36.3479 30.4676 33.4069 33.3714 33.4069 36.9535V44.0202C33.4069 46.012 34.3163 47.7941 35.7474 48.9838C35.9711 49.1698 36.1243 49.4308 36.1497 49.7206L37.3242 63.0875C37.3695 63.6039 37.802 64 38.3203 64H45.7144C46.2328 64 46.6652 63.6039 46.7106 63.0875L47.8849 49.7216C47.9104 49.4317 48.0636 49.1706 48.2874 48.9847C49.7191 47.7949 50.6289 46.0124 50.6289 44.0202V36.9535C50.6289 33.3714 47.6879 30.4676 44.06 30.4676H39.9758Z" />
</svg>
