<svg viewBox="0 0 64 64"  xmlns="http://www.w3.org/2000/svg">
<path fill-rule="evenodd" clip-rule="evenodd" d="M13.0488 32.4419L13.0667 32.4229C13.6 31.859 24 20.5815 24 12.6872C24 5.63877 18.6667 0 12 0C5.33333 0 0 5.63877 0 12.6872C0 20.5815 10.9333 32.4229 10.9333 32.4229C10.9333 32.4229 11.4667 33 12 33C12.5214 33 12.7879 32.7179 13.0488 32.4419ZM7.2 12.6872C7.2 10.7137 8.26667 9.02203 9.86667 8.45815C11.4667 7.89427 13.0667 8.17621 14.4 9.5859C15.7333 10.7137 16 12.6872 15.4667 14.3789C14.6667 16.0705 13.0667 17.1982 11.4667 17.1982C9.06667 17.1982 7.2 15.2247 7.2 12.6872ZM50.6663 27.3479C43.1997 27.3479 37.333 33.5506 37.333 41.4448C37.333 50.1849 49.5 63.5 49.5 63.5C49.5 63.5 50.133 63.9999 50.6663 63.9999C51.451 63.9999 52 63.5 52 63.5C52 63.5 63.9997 50.4669 63.9997 41.4448C63.9997 33.5506 58.133 27.3479 50.6663 27.3479ZM50.6663 46.5197C47.9997 46.5197 45.8663 44.2642 45.8663 41.4448C45.8663 38.6255 47.9997 36.37 50.6663 36.37C53.333 36.37 55.4663 38.6255 55.4663 41.4448C55.1997 44.2642 53.333 46.5197 50.6663 46.5197ZM11.9997 37.2159C10.3997 37.2159 9.33301 38.3436 9.33301 40.0353V44.2643C9.33301 45.956 10.3997 47.0837 11.9997 47.0837C13.5997 47.0837 14.6663 45.956 14.6663 44.2643V40.0353C14.6663 38.3436 13.5997 37.2159 11.9997 37.2159ZM9.33301 54.1322C9.33301 52.4405 10.3997 51.3128 11.9997 51.3128C13.5997 51.3128 14.6663 52.4405 14.6663 54.1322V58.3612C14.6663 60.0529 13.5997 61.1806 11.9997 61.1806C10.3997 61.1806 9.33301 60.0529 9.33301 58.3612V54.1322ZM25.3337 55.5419H21.3337C19.7337 55.5419 18.667 56.6697 18.667 58.3613C18.667 60.0529 19.7337 61.1807 21.3337 61.1807H25.3337C26.9337 61.1807 28.0003 60.0529 28.0003 58.3613C28.0003 56.6697 26.9337 55.5419 25.3337 55.5419ZM34.6667 55.5419H38.6667C40.2667 55.5419 41.3333 56.6697 41.3333 58.3613C41.3333 60.0529 40.2667 61.1807 38.6667 61.1807H34.6667C33.0667 61.1807 32 60.0529 32 58.3613C32 56.6697 33.0667 55.5419 34.6667 55.5419Z" />
</svg>
