<svg  viewBox="0 0 64 64"  xmlns="http://www.w3.org/2000/svg">
<path d="M50.6667 14.1333C51.7333 15.2 51.7333 16.8 50.6667 17.8667L35.4667 33.0667C33.6 34.9333 30.6667 34.9333 28.8 33.0667L24 28.2667C22.9333 27.2 22.9333 25.6 24 24.5333C25.0667 23.4667 26.6667 23.4667 27.7333 24.5333L31.2 28C31.4667 28.2667 31.7333 28.2667 32.2667 28.2667C32.5333 28.2667 33.0667 28 33.3333 28L47.2 14.1333C47.7333 13.3333 49.6 13.3333 50.6667 14.1333ZM32 48C21.3333 48 12.8 39.4667 12.8 28.5333C12.8 17.8667 21.3333 9.33333 32 9.33333C33.6 9.33333 34.6667 10.4 34.6667 12C34.6667 13.6 33.6 14.6667 32 14.6667C24.5333 14.6667 18.4 20.5333 18.1333 27.7333C17.6 35.2 23.2 41.6 30.4 42.4C37.8667 43.2 44.5333 38.4 45.8667 30.9333C46.1333 29.8667 46.6667 29.0667 47.4667 28.8C48.2667 28.5333 49.3333 28.5333 50.1333 29.3333C50.9333 29.8667 51.2 30.9333 50.9333 32C49.3333 41.3333 41.3333 48 32 48ZM64 5.06667C64 2.4 61.6 0 58.6667 0H5.33333C2.4 0 0 2.4 0 5.33333V24.8C0.266667 43.7333 13.3333 59.7333 31.7333 64C32 64 32.5333 64 32.8 64C50.9333 59.7333 64 43.2 64 24.5333V5.06667Z" />
</svg>
