<svg viewBox="0 0 65 60" xmlns="http://www.w3.org/2000/svg">
<g clip-path="url(#clip0)">
<path d="M47.628 34.9224L45.4899 32.9268C44.9553 32.4279 44.1536 32.4279 43.619 32.9268L35.8684 39.9113C35.3339 40.4102 35.3339 41.1585 35.8684 41.6574L38.0065 43.6529C38.2738 43.9024 38.541 44.4013 38.2738 44.9002C37.472 48.6418 38.541 52.3835 40.9464 55.3768C43.3518 58.3702 47.3607 59.8669 51.3696 60.1163C52.7059 60.1163 54.3095 59.8669 55.6458 59.368C56.1804 59.1185 56.4476 58.8691 56.4476 58.3702C56.4476 57.8713 56.4476 57.6219 56.1804 57.123L49.7661 51.1363C49.4988 50.8868 49.4988 50.6374 49.4988 50.1385V46.6463C49.4988 45.8979 50.0333 45.3991 50.8351 45.3991H54.5768C54.8441 45.3991 55.3786 45.6485 55.6458 45.6485L62.3274 51.8846C62.5947 52.1341 63.1292 52.3835 63.6637 52.1341C64.1982 52.1341 64.4655 51.6352 64.7328 51.3857C66.3363 47.1452 65.2673 42.4057 62.0601 39.1629C58.853 35.9201 54.0423 34.4235 49.2315 35.1718C48.4298 35.1718 47.8952 35.1718 47.628 34.9224Z" />
<path d="M29.9886 18.2131L27.5832 16.2175C27.316 15.9681 27.0487 15.4692 27.316 14.9703C28.385 10.4803 26.7814 5.99031 23.0398 2.99697C19.5654 0.25308 14.4874 -0.744699 9.94391 0.75197C9.40939 0.75197 9.14212 1.25086 9.14212 1.5003C9.14212 1.99919 9.14213 2.24864 9.40939 2.74753L16.0909 8.98365C16.3582 9.23309 16.3582 9.48254 16.3582 9.98143V13.4737C16.3582 14.222 15.8237 14.7209 15.0219 14.7209H11.2802C11.013 14.7209 10.4784 14.4714 10.2112 14.4714L3.79688 7.98587C3.52962 7.73643 2.99509 7.73643 2.46057 7.73643C1.92604 7.73643 1.65878 8.23532 1.39152 8.48476C-0.212057 12.7253 0.856992 17.4648 4.06414 20.7076C7.27129 23.9503 12.082 25.447 16.8927 24.6987C17.4273 24.6987 17.6945 24.6987 18.229 24.9481L20.6344 27.1931C21.1689 27.692 21.9707 27.692 22.5052 27.1931L29.9886 19.9592C30.5231 19.4603 30.5231 18.712 29.9886 18.2131Z" />
<path d="M45.2228 23.9468L39.0758 18.2096C38.5413 17.7107 37.7395 17.7107 37.205 18.2096L3.79718 49.6397C1.65908 51.6352 1.65908 54.6286 3.79718 56.6241L4.06444 56.8736C5.13349 57.8713 6.4698 58.3702 7.80611 58.3702C9.14242 58.3702 10.4787 57.8713 11.5478 56.8736L45.2228 25.4435C45.7574 25.1941 45.7574 24.4457 45.2228 23.9468Z" />
<path d="M51.6372 23.9466C52.9735 25.1938 55.3789 25.1938 56.7152 23.9466L63.9313 17.2116C65.2676 15.9644 65.2676 13.7193 63.9313 12.4721L53.2408 2.49433C52.9735 2.24488 52.1718 2.24488 51.6372 2.49433C47.6283 4.48989 42.283 3.74155 39.0759 0.498771C38.5414 -0.000119142 37.7396 -0.000119142 37.2051 0.498771L34.2652 3.24266C32.9289 4.48989 32.9289 6.73489 34.2652 7.98212L51.6372 23.9466Z" />
</g>
<defs>
<clipPath id="clip0">
<rect x="0.856934" width="64" height="64"/>
</clipPath>
</defs>
</svg>
