<svg viewBox="0 0 16 16" fill="none" xmlns="http://www.w3.org/2000/svg">
<g clip-path="url(#clip0)">
<rect width="6" height="4" transform="matrix(-4.37114e-08 -1 -1 4.37114e-08 5.5 15)" fill="#989A9B"/>
<rect x="-0.5" y="-0.5" width="5" height="3" transform="matrix(-4.37114e-08 -1 -1 4.37114e-08 4.5 6)" stroke="#C4C4C4"/>
<rect x="-0.5" y="-0.5" width="11" height="4" transform="matrix(-4.37114e-08 -1 -1 4.37114e-08 15.5 13)" stroke="#C4C4C4"/>
<path d="M4.5 4L7.5 4L7.5 8.00001M7.5 8.00001L10.5 8M7.5 8.00001L7.5 12L5.5 12M10.5 8L9 6.5M10.5 8L9 9.5" stroke="#C4C4C4"/>
</g>
<defs>
<clipPath id="clip0">
<rect width="16" height="16" fill="white" transform="matrix(-4.37114e-08 -1 -1 4.37114e-08 16.5 16)"/>
</clipPath>
</defs>
</svg>
