<svg  viewBox="0 0 64 64"  xmlns="http://www.w3.org/2000/svg">
<g clip-path="url(#clip0)">
<path fill-rule="evenodd" clip-rule="evenodd" d="M31.0592 27.5161L57.3564 1.25359C58.4636 0.457759 59.8477 -0.0727974 60.9549 0.192481C62.339 0.457759 63.4463 1.51887 63.7231 2.84526C63.9999 4.17166 63.7231 5.76333 62.8926 6.55916L36.5955 32.8217C36.4571 32.8217 36.3879 32.888 36.3187 32.9544C36.2495 33.0207 36.1803 33.087 36.0419 33.087L30.7824 34.6787C30.2288 34.9439 29.6752 34.6787 29.3984 34.4134C29.1216 34.1481 28.8447 33.6175 29.1216 33.087L30.7824 28.0467C30.7824 27.9351 30.7824 27.8704 30.8031 27.8132C30.8315 27.7344 30.8989 27.6698 31.0592 27.5161ZM55.9724 21.4148C57.3565 21.4148 58.7406 22.4759 58.7406 24.0676V55.901C58.7406 57.4927 57.6333 58.5538 55.9724 58.5538H8.08395C6.69989 58.5538 5.31583 57.4927 5.31583 55.901V24.0676C5.31583 22.4759 6.42308 21.4148 8.08395 21.4148H31.3362C31.4549 21.4148 31.5227 21.4148 31.5833 21.3939C31.6639 21.366 31.7317 21.301 31.8898 21.1495L31.8898 21.1495L35.7652 17.1704C36.042 17.1704 36.042 16.6398 36.042 16.6398C36.042 16.3745 35.7652 16.1092 35.4883 16.1092H8.08395C3.65495 16.1092 0.0563965 19.5579 0.0563965 24.0676V55.901C0.0563965 60.4107 3.65495 63.8593 8.08395 63.8593H55.9724C60.4014 63.8593 64 60.4107 64 55.901V24.0676C64 20.8843 62.0623 17.9662 59.0174 16.6398C58.7406 16.6398 58.4638 16.6398 58.1869 16.9051L54.8652 20.3537C54.5884 20.619 54.5884 20.8843 54.5884 21.1495C54.5884 21.4148 54.8652 21.6801 55.142 21.6801H55.9724V21.4148ZM48.4979 37.3315C48.4979 35.4746 47.1138 34.1482 45.1761 34.1482H43.7921C42.6848 34.1482 41.8544 34.944 41.8544 36.2704C41.8544 37.5968 42.6848 38.3926 43.7921 38.3926C44.0689 38.3926 44.3457 38.6579 44.3457 38.9232V49.5343C44.3457 49.7996 44.0689 50.0649 43.7921 50.0649H22.7543C22.4775 50.0649 22.2007 49.7996 22.2007 49.5343V46.351H32.1659C34.1036 46.351 35.4877 44.7593 35.4877 42.9024V38.6579C35.4877 38.3926 35.4877 38.1274 35.2109 38.1274C35.1051 38.1274 35.0398 38.0887 34.984 38.0556C34.8937 38.0021 34.8283 37.9634 34.6573 38.1274L31.8891 38.9232C31.6123 38.9232 31.3355 39.1885 31.3355 39.4537V41.3107C31.3355 41.576 31.0587 41.8413 30.7819 41.8413H14.7268C14.45 41.8413 14.1732 41.576 14.1732 41.3107V30.6996C14.1732 30.4343 14.45 30.169 14.7268 30.169H25.5225C25.7993 30.169 26.0761 29.9037 26.0761 29.6385L26.9065 26.9857V26.4551C26.9065 26.1898 26.6297 26.1898 26.3529 26.1898H13.3427C11.405 26.1898 10.021 27.7815 10.021 29.3732V42.6371C10.021 44.494 11.405 45.8204 13.3427 46.0857H18.0485V50.5954C18.0485 52.4524 19.4326 53.7788 21.3703 53.7788H45.1761C47.1138 53.7788 48.4979 52.1871 48.4979 50.5954V37.3315Z" />
</g>
<defs>
<clipPath id="clip0">
<rect width="64" height="64" />
</clipPath>
</defs>
</svg>
