<svg viewBox="0 0 64 64"  xmlns="http://www.w3.org/2000/svg">
<rect x="7.11133" y="18.8571" width="39.1111" height="8.42857" rx="1" />
<rect x="56.8887" y="44.1429" width="39.1111" height="8.42857" rx="1" transform="rotate(-180 56.8887 44.1429)"/>
<path d="M39.1113 4.44148C39.1113 3.54675 40.1964 3.10234 40.824 3.73998L62.3254 25.5842C62.9477 26.2164 62.4998 27.2857 61.6127 27.2857H40.1113C39.559 27.2857 39.1113 26.838 39.1113 26.2857L39.1113 4.44148Z" />
<path d="M24.8887 58.5585C24.8887 59.4532 23.8036 59.8977 23.176 59.26L1.67458 37.4158C1.05228 36.7836 1.50015 35.7143 2.38725 35.7143H23.8887C24.441 35.7143 24.8887 36.162 24.8887 36.7143L24.8887 58.5585Z" />
</svg>
