<svg viewBox="0 0 64 64" xmlns="http://www.w3.org/2000/svg">
<g clip-path="url(#clip0)">
<path d="M25.725 39.2169C26.25 39.4893 26.775 39.4893 27.0375 39.2169L42.525 29.9574C43.05 29.685 43.3125 29.1404 43.3125 28.5957C43.3125 28.051 43.05 27.5063 42.525 27.234L27.0375 17.9744C26.5125 17.7021 25.9875 17.7021 25.725 17.9744C25.2 18.5191 24.9375 19.0638 24.9375 19.6084V38.1276C24.9375 38.6723 25.2 38.9446 25.725 39.2169Z" />
<path fill-rule="evenodd" clip-rule="evenodd" d="M54.1378 48.8136C54.4044 48.8136 54.6709 48.5424 54.6709 48.2712V8.94915C54.6709 8.67797 54.4044 8.40678 54.4044 8.40678C54.1378 8.13559 54.1378 8.13559 53.8713 8.13559H9.89125H9.6247C9.47186 8.29109 9.40666 8.35743 9.37885 8.43686C9.35816 8.49595 9.35816 8.56228 9.35816 8.67797V48.2712C9.35816 48.5424 9.6247 48.8136 9.89125 48.8136H54.1378ZM60.0018 0C62.1342 0 64 1.89831 64 4.0678C64 5.9661 62.4007 7.86441 60.5349 8.13559C60.2684 8.13559 60.0018 8.40678 60.0018 8.67797V48.2712C60.0018 48.5424 60.2684 48.8136 60.5349 48.8136C61.8676 49.0847 62.9338 50.4407 62.6673 51.7966C62.4007 53.1525 61.3345 54.2373 60.0018 54.2373H34.68C34.4134 54.2373 34.1469 54.5085 34.1469 54.5085C33.9941 54.664 33.9289 54.7303 33.901 54.8097C33.8804 54.8688 33.8804 54.9352 33.8804 55.0508V55.4105C35.4266 56.1226 36.5 57.686 36.5 59.5C36.5 61.3448 35.3899 62.9303 33.8013 63.625C33.2591 63.8709 32.6532 64 32.0145 64C32.0124 64 32.0103 64 32.0081 64C32.0054 64 32.0027 64 32 64C29.5147 64 27.5 61.9853 27.5 59.5C27.5 57.6746 28.5868 56.1031 30.1487 55.3972V55.0508C30.1487 54.7797 29.8822 54.5085 29.8822 54.5085C29.7284 54.3521 29.6634 54.2859 29.5847 54.2579C29.527 54.2373 29.4619 54.2373 29.3491 54.2373H4.02725C2.69452 54.2373 1.36179 52.8814 1.36179 51.5254C1.36179 50.1695 2.16143 48.8136 3.49416 48.5424C3.7607 48.5424 4.02725 48.2712 4.02725 48V8.67797C4.02725 8.40678 3.7607 8.13559 3.49416 8.13559C1.36179 7.86441 -0.237482 5.9661 0.0290637 3.79661C0.295609 1.62712 1.89488 0 4.02725 0H60.0018Z" />
</g>
<defs>
<clipPath id="clip0">
<rect width="64" height="64"/>
</clipPath>
</defs>
</svg>
