<svg  viewBox="0 0 64 64" xmlns="http://www.w3.org/2000/svg">
<path fill-rule="evenodd" clip-rule="evenodd" d="M0 12C0 8.41015 2.91015 5.5 6.5 5.5H57.5C61.0899 5.5 64 8.41015 64 12V51C64 54.5899 61.0899 57.5 57.5 57.5H6.5C2.91015 57.5 0 54.5899 0 51V12ZM6.5 10.5C5.67157 10.5 5 11.1716 5 12V15C5 15.5523 5.44772 16 6 16H11.5C12.0523 16 12.5 15.5523 12.5 15V11.5C12.5 10.9477 12.0523 10.5 11.5 10.5H6.5ZM59 15C59 15.5523 58.5523 16 58 16H52.5C51.9477 16 51.5 15.5523 51.5 15V11.5C51.5 10.9477 51.9477 10.5 52.5 10.5H57.5C58.3284 10.5 59 11.1716 59 12V15ZM46.5 10.5C47.0523 10.5 47.5 10.9477 47.5 11.5V15C47.5 15.5523 47.0523 16 46.5 16H40.5C39.9477 16 39.5 15.5523 39.5 15V11.5C39.5 10.9477 39.9477 10.5 40.5 10.5H46.5ZM27.5 15C27.5 15.5523 27.9477 16 28.5 16H34.5C35.0523 16 35.5 15.5523 35.5 15V11.5C35.5 10.9477 35.0523 10.5 34.5 10.5H28.5C27.9477 10.5 27.5 10.9477 27.5 11.5V15ZM23.5 15C23.5 15.5523 23.0523 16 22.5 16H17.5C16.9477 16 16.5 15.5523 16.5 15V11.5C16.5 10.9477 16.9477 10.5 17.5 10.5H22.5C23.0523 10.5 23.5 10.9477 23.5 11.5V15ZM22.5 20C23.0523 20 23.5 20.4477 23.5 21V24C23.5 24.5523 23.0523 25 22.5 25H6C5.44772 25 5 24.5523 5 24V21C5 20.4477 5.44772 20 6 20H22.5ZM28.5 25C27.9477 25 27.5 24.5523 27.5 24V21C27.5 20.4477 27.9477 20 28.5 20H34.5C35.0523 20 35.5 20.4477 35.5 21V24C35.5 24.5523 35.0523 25 34.5 25H28.5ZM23.5 30C23.5 29.4477 23.0523 29 22.5 29H17.5C16.9477 29 16.5 29.4477 16.5 30V33C16.5 33.5523 16.9477 34 17.5 34H22.5C23.0523 34 23.5 33.5523 23.5 33V30ZM28.5 34C27.9477 34 27.5 33.5523 27.5 33V30C27.5 29.4477 27.9477 29 28.5 29H34.5C35.0523 29 35.5 29.4477 35.5 30V33C35.5 33.5523 35.0523 34 34.5 34H28.5ZM23.5 39C23.5 38.4477 23.0523 38 22.5 38H17.5C16.9477 38 16.5 38.4477 16.5 39L16.5 42C16.5 42.5523 16.9477 43 17.5 43H22.5C23.0523 43 23.5 42.5523 23.5 42V39ZM28.5 43C27.9477 43 27.5 42.5523 27.5 42V39C27.5 38.4477 27.9477 38 28.5 38H34.5C35.0523 38 35.5 38.4477 35.5 39V42C35.5 42.5523 35.0523 43 34.5 43H28.5ZM40.5 20C39.9477 20 39.5 20.4477 39.5 21V24C39.5 24.5523 39.9477 25 40.5 25H46.5C47.0523 25 47.5 24.5523 47.5 24V21C47.5 20.4477 47.0523 20 46.5 20H40.5ZM40.5 29C39.9477 29 39.5 29.4477 39.5 30V33C39.5 33.5523 39.9477 34 40.5 34H46.5C47.0523 34 47.5 33.5523 47.5 33V30C47.5 29.4477 47.0523 29 46.5 29H40.5ZM40.5 38C39.9477 38 39.5 38.4477 39.5 39V42C39.5 42.5523 39.9477 43 40.5 43H58C58.5523 43 59 42.5523 59 42V39C59 38.4477 58.5523 38 58 38H40.5ZM52.5 20C51.9477 20 51.5 20.4477 51.5 21V24C51.5 24.5523 51.9477 25 52.5 25H58C58.5523 25 59 24.5523 59 24V21C59 20.4477 58.5523 20 58 20H52.5ZM12.5 30C12.5 29.4477 12.0523 29 11.5 29H6C5.44772 29 5 29.4477 5 30V33C5 33.5523 5.44772 34 6 34H11.5C12.0523 34 12.5 33.5523 12.5 33V30ZM12.5 39C12.5 38.4477 12.0523 38 11.5 38H6C5.44772 38 5 38.4477 5 39V42C5 42.5523 5.44772 43 6 43H11.5C12.0523 43 12.5 42.5523 12.5 42L12.5 39ZM12.5 48C12.5 47.4477 12.0523 47 11.5 47H6C5.44772 47 5 47.4477 5 48V51C5 51.8284 5.67157 52.5 6.5 52.5H11.5C12.0523 52.5 12.5 52.0523 12.5 51.5V48ZM17.5 52.5C16.9477 52.5 16.5 52.0523 16.5 51.5V48C16.5 47.4477 16.9477 47 17.5 47H46.5C47.0523 47 47.5 47.4477 47.5 48V51.5C47.5 52.0523 47.0523 52.5 46.5 52.5H17.5ZM52.5 29C51.9477 29 51.5 29.4477 51.5 30V33C51.5 33.5523 51.9477 34 52.5 34H58C58.5523 34 59 33.5523 59 33V30C59 29.4477 58.5523 29 58 29H52.5ZM52.5 47C51.9477 47 51.5 47.4477 51.5 48V51.5C51.5 52.0523 51.9477 52.5 52.5 52.5H57.5C58.3284 52.5 59 51.8284 59 51V48C59 47.4477 58.5523 47 58 47H52.5Z" />
</svg>
