<svg width="8" height="10" viewBox="0 0 8 10" xmlns="http://www.w3.org/2000/svg">
<path d="M8 7.5532V10H0V7.5532C0 7.04255 0.426666 6.63121 0.64 6.48937L2.56 5.42554L3.30667 7.87235L3.73333 6.59575C3.62667 6.41845 3.41333 6.10639 3.41333 5.85107C3.41333 5.59574 3.76889 5.42553 3.94667 5.42554C4.12444 5.42553 4.48 5.63832 4.48 5.85107C4.48 6.2766 4.26667 6.48937 4.16 6.59575L4.58667 7.87235L5.33333 5.42554C5.86667 5.70923 7.04 6.34043 7.46667 6.59575C7.89333 6.85107 8 7.34043 8 7.5532Z" />
<path d="M1.9203 2.44681C1.9203 3.79814 2.82767 4.89362 3.94697 4.89362C5.06626 4.89362 5.97363 3.79814 5.97363 2.44681C5.97363 1.09547 5.06626 0 3.94697 0C2.82767 0 1.9203 1.09547 1.9203 2.44681Z" />
</svg>
