<svg  viewBox="0 0 64 64"  xmlns="http://www.w3.org/2000/svg">
<path fill-rule="evenodd" clip-rule="evenodd" d="M59.0769 4.92308H4.92308L4.92308 59.0769H59.0769V4.92308ZM4.92308 0C2.20414 0 0 2.20414 0 4.92308V59.0769C0 61.7959 2.20414 64 4.92308 64H59.0769C61.7959 64 64 61.7959 64 59.0769V4.92308C64 2.20414 61.7959 0 59.0769 0H4.92308Z" />
<path d="M21.8852 29.9613C21.799 30.1116 21.7967 30.2959 21.8792 30.4482L26.3191 38.6465C26.4995 38.9797 26.2583 39.3846 25.8794 39.3846H23.0483C22.8547 39.3846 22.6785 39.2728 22.596 39.0976L20.0116 33.6084C19.8309 33.2244 19.2841 33.2261 19.1056 33.6111L16.5639 39.0949C16.482 39.2716 16.3049 39.3846 16.1102 39.3846H13.3997C13.0219 39.3846 12.7806 38.9817 12.9589 38.6487L17.2851 30.5673C17.3655 30.417 17.3639 30.2362 17.2808 30.0874L13.3743 23.0946C13.1881 22.7614 13.4291 22.3508 13.8108 22.3508H16.6049C16.7984 22.3508 16.9745 22.4624 17.0571 22.6374L19.1629 27.1C19.3414 27.4785 19.8782 27.4832 20.0634 27.1079L22.2735 22.6295C22.3578 22.4589 22.5316 22.3508 22.7219 22.3508H25.3878C25.7721 22.3508 26.0128 22.7663 25.8215 23.0996L21.8852 29.9613Z" />
<path d="M35.1134 22.7939C35.3895 22.7939 35.6134 23.0177 35.6134 23.2939V38.8846C35.6134 39.1608 35.3895 39.3846 35.1134 39.3846H32.6919C32.4157 39.3846 32.1919 39.1608 32.1919 38.8846V27.1344C32.1919 26.7433 31.7631 26.5037 31.43 26.7085L28.9654 28.2239C28.7338 28.3663 28.4309 28.2976 28.2835 28.0692L27.3025 26.5502C27.1493 26.3131 27.2227 25.9964 27.4644 25.8507L32.4174 22.8656C32.4953 22.8187 32.5845 22.7939 32.6755 22.7939H35.1134Z" />
<path d="M44.5994 22.4739C45.7481 22.4739 46.7409 22.6872 47.5778 23.1139C48.4147 23.5241 49.0465 24.0903 49.4732 24.8123C49.9163 25.518 50.1378 26.3057 50.1378 27.1754C50.1378 28.078 49.9409 28.9477 49.5471 29.7846C49.1696 30.6216 48.5132 31.5652 47.5778 32.6154C46.8252 33.4755 45.7865 34.5393 44.4615 35.8066C44.1338 36.1201 44.354 36.677 44.8076 36.677H49.9291C50.2339 36.677 50.4677 36.9473 50.4239 37.2489L50.1755 38.9566C50.1397 39.2024 49.929 39.3846 49.6807 39.3846H40.0532C39.7771 39.3846 39.5532 39.1608 39.5532 38.8846V37.0564C39.5532 36.9238 39.6062 36.7963 39.6999 36.7025C41.6917 34.7084 43.1361 33.2148 44.0332 32.2216C44.9522 31.2041 45.6004 30.3426 45.9778 29.637C46.3553 28.9313 46.544 28.2093 46.544 27.4708C46.544 26.7652 46.3388 26.2072 45.9286 25.797C45.5183 25.3867 44.9686 25.1816 44.2794 25.1816C43.6722 25.1816 43.1306 25.3211 42.6547 25.6C42.2776 25.8081 41.8849 26.1296 41.4768 26.5645C41.2912 26.7623 40.9843 26.7941 40.7725 26.6247L39.442 25.5603C39.23 25.3907 39.191 25.0816 39.3673 24.8753C40.7359 23.2744 42.4799 22.4739 44.5994 22.4739Z"/>
</svg>
